solid OpenSCAD_Model
  facet normal 1 -0 0
    outer loop
      vertex 127 0 180
      vertex 127 80 0
      vertex 127 80 180
    endloop
  endfacet
  facet normal 1 0 0
    outer loop
      vertex 127 80 0
      vertex 127 0 180
      vertex 127 0 0
    endloop
  endfacet
  facet normal 0 0 1
    outer loop
      vertex 127 80 180
      vertex 124 77 180
      vertex 127 0 180
    endloop
  endfacet
  facet normal 0 0 1
    outer loop
      vertex 127 80 180
      vertex 3 77 180
      vertex 124 77 180
    endloop
  endfacet
  facet normal 0 0 1
    outer loop
      vertex 3 77 180
      vertex 0 80 180
      vertex 3 3 180
    endloop
  endfacet
  facet normal -0 0 1
    outer loop
      vertex 0 80 180
      vertex 3 77 180
      vertex 127 80 180
    endloop
  endfacet
  facet normal -0 0 1
    outer loop
      vertex 124 3 180
      vertex 127 0 180
      vertex 124 77 180
    endloop
  endfacet
  facet normal -0 0 1
    outer loop
      vertex 3 3 180
      vertex 127 0 180
      vertex 124 3 180
    endloop
  endfacet
  facet normal 0 0 1
    outer loop
      vertex 3 3 180
      vertex 0 0 180
      vertex 127 0 180
    endloop
  endfacet
  facet normal 0 0 1
    outer loop
      vertex 0 0 180
      vertex 3 3 180
      vertex 0 80 180
    endloop
  endfacet
  facet normal 0 0 -1
    outer loop
      vertex 0 0 0
      vertex 127 80 0
      vertex 127 0 0
    endloop
  endfacet
  facet normal -0 0 -1
    outer loop
      vertex 127 80 0
      vertex 0 0 0
      vertex 0 80 0
    endloop
  endfacet
  facet normal -1 0 0
    outer loop
      vertex 0 0 0
      vertex 0 80 180
      vertex 0 80 0
    endloop
  endfacet
  facet normal -1 -0 0
    outer loop
      vertex 0 80 180
      vertex 0 0 0
      vertex 0 0 180
    endloop
  endfacet
  facet normal 0 1 -0
    outer loop
      vertex 127 80 0
      vertex 0 80 180
      vertex 127 80 180
    endloop
  endfacet
  facet normal 0 1 0
    outer loop
      vertex 0 80 180
      vertex 127 80 0
      vertex 0 80 0
    endloop
  endfacet
  facet normal 0 -1 0
    outer loop
      vertex 38.5 0 120
      vertex 84.1214 0 85
      vertex 88.5 0 120
    endloop
  endfacet
  facet normal 0 -1 0
    outer loop
      vertex 88.5 0 120
      vertex 96.1382 0 110
      vertex 96.1382 0 115
    endloop
  endfacet
  facet normal 0 -1 0
    outer loop
      vertex 0 0 180
      vertex 38.5 0 139
      vertex 127 0 180
    endloop
  endfacet
  facet normal 0 -1 0
    outer loop
      vertex 19.1382 0 115
      vertex 38.5 0 139
      vertex 0 0 180
    endloop
  endfacet
  facet normal 0 -1 -0
    outer loop
      vertex 38.5 0 139
      vertex 30.7831 0 115
      vertex 38.5 0 120
    endloop
  endfacet
  facet normal 0 -1 0
    outer loop
      vertex 30.7831 0 115
      vertex 38.5 0 139
      vertex 19.1382 0 115
    endloop
  endfacet
  facet normal 0 -1 0
    outer loop
      vertex 0 0 180
      vertex 19.1382 0 110
      vertex 19.1382 0 115
    endloop
  endfacet
  facet normal 0 -1 0
    outer loop
      vertex 52.6051 0 45
      vertex 30.7831 0 110
      vertex 19.1382 0 110
    endloop
  endfacet
  facet normal 0 -1 -0
    outer loop
      vertex 88.5 0 120
      vertex 84.1214 0 85
      vertex 96.1382 0 110
    endloop
  endfacet
  facet normal 0 -1 0
    outer loop
      vertex 99.8786 0 85
      vertex 96.1382 0 110
      vertex 84.1214 0 85
    endloop
  endfacet
  facet normal 0 -1 0
    outer loop
      vertex 30.7831 0 110
      vertex 84.1214 0 80
      vertex 84.1214 0 85
    endloop
  endfacet
  facet normal 0 -1 0
    outer loop
      vertex 74.3949 0 45
      vertex 84.1214 0 80
      vertex 52.6051 0 45
    endloop
  endfacet
  facet normal 0 -1 0
    outer loop
      vertex 30.7831 0 110
      vertex 52.6051 0 45
      vertex 84.1214 0 80
    endloop
  endfacet
  facet normal 0 -1 0
    outer loop
      vertex 0 0 0
      vertex 52.6051 0 45
      vertex 19.1382 0 110
    endloop
  endfacet
  facet normal 0 -1 -0
    outer loop
      vertex 52.6051 0 40
      vertex 0 0 0
      vertex 74.3949 0 40
    endloop
  endfacet
  facet normal 0 -1 -0
    outer loop
      vertex 52.6051 0 45
      vertex 0 0 0
      vertex 52.6051 0 40
    endloop
  endfacet
  facet normal 0 -1 0
    outer loop
      vertex 0 0 0
      vertex 19.1382 0 110
      vertex 0 0 180
    endloop
  endfacet
  facet normal 0 -1 0
    outer loop
      vertex 88.5 0 139
      vertex 127 0 180
      vertex 38.5 0 139
    endloop
  endfacet
  facet normal 0 -1 0
    outer loop
      vertex 96.1382 0 115
      vertex 88.5 0 139
      vertex 88.5 0 120
    endloop
  endfacet
  facet normal 0 -1 0
    outer loop
      vertex 30.7831 0 110
      vertex 38.5 0 120
      vertex 30.7831 0 115
    endloop
  endfacet
  facet normal 0 -1 0
    outer loop
      vertex 84.1214 0 85
      vertex 38.5 0 120
      vertex 30.7831 0 110
    endloop
  endfacet
  facet normal 0 -1 0
    outer loop
      vertex 88.5 0 139
      vertex 96.1382 0 115
      vertex 107.783 0 115
    endloop
  endfacet
  facet normal 0 -1 0
    outer loop
      vertex 88.5 0 139
      vertex 107.783 0 115
      vertex 127 0 180
    endloop
  endfacet
  facet normal 0 -1 0
    outer loop
      vertex 107.783 0 110
      vertex 127 0 180
      vertex 107.783 0 115
    endloop
  endfacet
  facet normal 0 -1 0
    outer loop
      vertex 96.1382 0 110
      vertex 99.8786 0 85
      vertex 107.783 0 110
    endloop
  endfacet
  facet normal 0 -1 0
    outer loop
      vertex 99.8786 0 80
      vertex 107.783 0 110
      vertex 99.8786 0 85
    endloop
  endfacet
  facet normal 0 -1 0
    outer loop
      vertex 127 0 0
      vertex 107.783 0 110
      vertex 99.8786 0 80
    endloop
  endfacet
  facet normal 0 -1 -0
    outer loop
      vertex 84.1214 0 80
      vertex 74.3949 0 45
      vertex 99.8786 0 80
    endloop
  endfacet
  facet normal 0 -1 0
    outer loop
      vertex 74.3949 0 40
      vertex 99.8786 0 80
      vertex 74.3949 0 45
    endloop
  endfacet
  facet normal 0 -1 0
    outer loop
      vertex 107.783 0 110
      vertex 127 0 0
      vertex 127 0 180
    endloop
  endfacet
  facet normal 0 -1 0
    outer loop
      vertex 74.3949 0 40
      vertex 127 0 0
      vertex 99.8786 0 80
    endloop
  endfacet
  facet normal 0 -1 0
    outer loop
      vertex 127 0 0
      vertex 74.3949 0 40
      vertex 0 0 0
    endloop
  endfacet
  facet normal -1 0 0
    outer loop
      vertex 124 3 3
      vertex 124 77 180
      vertex 124 77 3
    endloop
  endfacet
  facet normal -1 -0 0
    outer loop
      vertex 124 77 180
      vertex 124 3 3
      vertex 124 3 180
    endloop
  endfacet
  facet normal -0 0 1
    outer loop
      vertex 3 77 3
      vertex 124 3 3
      vertex 124 77 3
    endloop
  endfacet
  facet normal 0 0 1
    outer loop
      vertex 124 3 3
      vertex 3 77 3
      vertex 3 3 3
    endloop
  endfacet
  facet normal 1 -0 0
    outer loop
      vertex 3 3 180
      vertex 3 77 3
      vertex 3 77 180
    endloop
  endfacet
  facet normal 1 0 0
    outer loop
      vertex 3 77 3
      vertex 3 3 180
      vertex 3 3 3
    endloop
  endfacet
  facet normal 0 -1 0
    outer loop
      vertex 3 77 3
      vertex 124 77 180
      vertex 3 77 180
    endloop
  endfacet
  facet normal 0 -1 -0
    outer loop
      vertex 124 77 180
      vertex 3 77 3
      vertex 124 77 3
    endloop
  endfacet
  facet normal 0 1 0
    outer loop
      vertex 88.5 3 120
      vertex 85.1112 3 85
      vertex 38.5 3 120
    endloop
  endfacet
  facet normal 0 1 0
    outer loop
      vertex 38.5 3 120
      vertex 29.3201 3 110
      vertex 29.3201 3 115
    endloop
  endfacet
  facet normal 0 1 0
    outer loop
      vertex 124 3 180
      vertex 88.5 3 139
      vertex 3 3 180
    endloop
  endfacet
  facet normal 0 1 -0
    outer loop
      vertex 106.32 3 115
      vertex 88.5 3 139
      vertex 124 3 180
    endloop
  endfacet
  facet normal 0 1 0
    outer loop
      vertex 88.5 3 139
      vertex 97.6763 3 115
      vertex 88.5 3 120
    endloop
  endfacet
  facet normal 0 1 -0
    outer loop
      vertex 97.6763 3 115
      vertex 88.5 3 139
      vertex 106.32 3 115
    endloop
  endfacet
  facet normal 0 1 0
    outer loop
      vertex 124 3 180
      vertex 106.32 3 110
      vertex 106.32 3 115
    endloop
  endfacet
  facet normal 0 1 -0
    outer loop
      vertex 98.8888 3 85
      vertex 97.6763 3 110
      vertex 106.32 3 110
    endloop
  endfacet
  facet normal 0 1 0
    outer loop
      vertex 38.5 3 120
      vertex 85.1112 3 85
      vertex 29.3201 3 110
    endloop
  endfacet
  facet normal 0 1 0
    outer loop
      vertex 97.6763 3 110
      vertex 98.8888 3 85
      vertex 85.1112 3 85
    endloop
  endfacet
  facet normal 0 1 0
    outer loop
      vertex 106.32 3 110
      vertex 98.8888 3 80
      vertex 98.8888 3 85
    endloop
  endfacet
  facet normal 0 1 -0
    outer loop
      vertex 124 3 3
      vertex 106.32 3 110
      vertex 124 3 180
    endloop
  endfacet
  facet normal 0 1 0
    outer loop
      vertex 98.8888 3 80
      vertex 73.703 3 45
      vertex 85.1112 3 80
    endloop
  endfacet
  facet normal 0 1 0
    outer loop
      vertex 98.8888 3 80
      vertex 73.703 3 40
      vertex 73.703 3 45
    endloop
  endfacet
  facet normal 0 1 0
    outer loop
      vertex 73.703 3 40
      vertex 124 3 3
      vertex 53.297 3 40
    endloop
  endfacet
  facet normal 0 1 0
    outer loop
      vertex 98.8888 3 80
      vertex 124 3 3
      vertex 73.703 3 40
    endloop
  endfacet
  facet normal 0 1 0
    outer loop
      vertex 106.32 3 110
      vertex 124 3 3
      vertex 98.8888 3 80
    endloop
  endfacet
  facet normal 0 1 -0
    outer loop
      vertex 38.5 3 139
      vertex 3 3 180
      vertex 88.5 3 139
    endloop
  endfacet
  facet normal 0 1 0
    outer loop
      vertex 29.3201 3 115
      vertex 38.5 3 139
      vertex 38.5 3 120
    endloop
  endfacet
  facet normal 0 1 -0
    outer loop
      vertex 97.6763 3 110
      vertex 88.5 3 120
      vertex 97.6763 3 115
    endloop
  endfacet
  facet normal 0 1 0
    outer loop
      vertex 85.1112 3 85
      vertex 88.5 3 120
      vertex 97.6763 3 110
    endloop
  endfacet
  facet normal 0 1 0
    outer loop
      vertex 38.5 3 139
      vertex 29.3201 3 115
      vertex 20.6763 3 115
    endloop
  endfacet
  facet normal 0 1 0
    outer loop
      vertex 38.5 3 139
      vertex 20.6763 3 115
      vertex 3 3 180
    endloop
  endfacet
  facet normal 0 1 -0
    outer loop
      vertex 20.6763 3 110
      vertex 3 3 180
      vertex 20.6763 3 115
    endloop
  endfacet
  facet normal 0 1 -0
    outer loop
      vertex 85.1112 3 80
      vertex 29.3201 3 110
      vertex 85.1112 3 85
    endloop
  endfacet
  facet normal 0 1 -0
    outer loop
      vertex 53.297 3 45
      vertex 29.3201 3 110
      vertex 85.1112 3 80
    endloop
  endfacet
  facet normal 0 1 0
    outer loop
      vertex 53.297 3 45
      vertex 85.1112 3 80
      vertex 73.703 3 45
    endloop
  endfacet
  facet normal 0 1 0
    outer loop
      vertex 29.3201 3 110
      vertex 53.297 3 45
      vertex 20.6763 3 110
    endloop
  endfacet
  facet normal 0 1 0
    outer loop
      vertex 3 3 3
      vertex 53.297 3 45
      vertex 53.297 3 40
    endloop
  endfacet
  facet normal 0 1 0
    outer loop
      vertex 20.6763 3 110
      vertex 3 3 3
      vertex 3 3 180
    endloop
  endfacet
  facet normal 0 1 0
    outer loop
      vertex 53.297 3 45
      vertex 3 3 3
      vertex 20.6763 3 110
    endloop
  endfacet
  facet normal 0 1 0
    outer loop
      vertex 3 3 3
      vertex 53.297 3 40
      vertex 124 3 3
    endloop
  endfacet
  facet normal -0.951067 -0.308986 0
    outer loop
      vertex 17.5729 18.2366 20
      vertex 17 20 28
      vertex 17 20 20
    endloop
  endfacet
  facet normal -0.951067 -0.308986 0
    outer loop
      vertex 17 20 28
      vertex 17.5729 18.2366 20
      vertex 17.5729 18.2366 28
    endloop
  endfacet
  facet normal 0.58778 0.809021 -0
    outer loop
      vertex 22.4271 21.7634 20
      vertex 20.9271 22.8532 28
      vertex 22.4271 21.7634 28
    endloop
  endfacet
  facet normal 0.58778 0.809021 0
    outer loop
      vertex 20.9271 22.8532 28
      vertex 22.4271 21.7634 20
      vertex 20.9271 22.8532 20
    endloop
  endfacet
  facet normal 0.951067 0.308986 0
    outer loop
      vertex 23 20 28
      vertex 22.4271 21.7634 20
      vertex 22.4271 21.7634 28
    endloop
  endfacet
  facet normal 0.951067 0.308986 0
    outer loop
      vertex 22.4271 21.7634 20
      vertex 23 20 28
      vertex 23 20 20
    endloop
  endfacet
  facet normal 0 1 -0
    outer loop
      vertex 20.9271 22.8532 20
      vertex 19.0729 22.8532 28
      vertex 20.9271 22.8532 28
    endloop
  endfacet
  facet normal 0 1 0
    outer loop
      vertex 19.0729 22.8532 28
      vertex 20.9271 22.8532 20
      vertex 19.0729 22.8532 20
    endloop
  endfacet
  facet normal 0 0 1
    outer loop
      vertex 21.5 20 28
      vertex 23 20 28
      vertex 22.4271 21.7634 28
    endloop
  endfacet
  facet normal 0 0 1
    outer loop
      vertex 23 20 28
      vertex 21.5 20 28
      vertex 22.4271 18.2366 28
    endloop
  endfacet
  facet normal 0 0 1
    outer loop
      vertex 20.4635 21.4266 28
      vertex 22.4271 21.7634 28
      vertex 20.9271 22.8532 28
    endloop
  endfacet
  facet normal 0 0 1
    outer loop
      vertex 22.4271 21.7634 28
      vertex 20.4635 21.4266 28
      vertex 21.5 20 28
    endloop
  endfacet
  facet normal -0 0 1
    outer loop
      vertex 19.0729 22.8532 28
      vertex 20.4635 21.4266 28
      vertex 20.9271 22.8532 28
    endloop
  endfacet
  facet normal 0 0 1
    outer loop
      vertex 19.0729 22.8532 28
      vertex 18.7865 20.8817 28
      vertex 20.4635 21.4266 28
    endloop
  endfacet
  facet normal 0 0 1
    outer loop
      vertex 17 20 28
      vertex 18.7865 20.8817 28
      vertex 17.5729 21.7634 28
    endloop
  endfacet
  facet normal -0 0 1
    outer loop
      vertex 17.5729 21.7634 28
      vertex 18.7865 20.8817 28
      vertex 19.0729 22.8532 28
    endloop
  endfacet
  facet normal -0 0 1
    outer loop
      vertex 20.4635 18.5734 28
      vertex 22.4271 18.2366 28
      vertex 21.5 20 28
    endloop
  endfacet
  facet normal 0 0 1
    outer loop
      vertex 22.4271 18.2366 28
      vertex 20.4635 18.5734 28
      vertex 20.9271 17.1468 28
    endloop
  endfacet
  facet normal 0 0 1
    outer loop
      vertex 20.4635 18.5734 28
      vertex 19.0729 17.1468 28
      vertex 20.9271 17.1468 28
    endloop
  endfacet
  facet normal 0 0 1
    outer loop
      vertex 18.7865 19.1183 28
      vertex 19.0729 17.1468 28
      vertex 20.4635 18.5734 28
    endloop
  endfacet
  facet normal 0 0 1
    outer loop
      vertex 18.7865 20.8817 28
      vertex 17 20 28
      vertex 18.7865 19.1183 28
    endloop
  endfacet
  facet normal 0 0 1
    outer loop
      vertex 18.7865 19.1183 28
      vertex 17.5729 18.2366 28
      vertex 19.0729 17.1468 28
    endloop
  endfacet
  facet normal 0 0 1
    outer loop
      vertex 18.7865 19.1183 28
      vertex 17 20 28
      vertex 17.5729 18.2366 28
    endloop
  endfacet
  facet normal -0.58778 -0.809021 0
    outer loop
      vertex 17.5729 18.2366 20
      vertex 19.0729 17.1468 28
      vertex 17.5729 18.2366 28
    endloop
  endfacet
  facet normal -0.58778 -0.809021 -0
    outer loop
      vertex 19.0729 17.1468 28
      vertex 17.5729 18.2366 20
      vertex 19.0729 17.1468 20
    endloop
  endfacet
  facet normal 0.951067 -0.308986 0
    outer loop
      vertex 22.4271 18.2366 28
      vertex 23 20 20
      vertex 23 20 28
    endloop
  endfacet
  facet normal 0.951067 -0.308986 0
    outer loop
      vertex 23 20 20
      vertex 22.4271 18.2366 28
      vertex 22.4271 18.2366 20
    endloop
  endfacet
  facet normal -0.58778 0.809021 0
    outer loop
      vertex 19.0729 22.8532 20
      vertex 17.5729 21.7634 28
      vertex 19.0729 22.8532 28
    endloop
  endfacet
  facet normal -0.58778 0.809021 0
    outer loop
      vertex 17.5729 21.7634 28
      vertex 19.0729 22.8532 20
      vertex 17.5729 21.7634 20
    endloop
  endfacet
  facet normal 0 -1 0
    outer loop
      vertex 19.0729 17.1468 20
      vertex 20.9271 17.1468 28
      vertex 19.0729 17.1468 28
    endloop
  endfacet
  facet normal 0 -1 -0
    outer loop
      vertex 20.9271 17.1468 28
      vertex 19.0729 17.1468 20
      vertex 20.9271 17.1468 20
    endloop
  endfacet
  facet normal 0.58778 -0.809021 0
    outer loop
      vertex 20.9271 17.1468 20
      vertex 22.4271 18.2366 28
      vertex 20.9271 17.1468 28
    endloop
  endfacet
  facet normal 0.58778 -0.809021 0
    outer loop
      vertex 22.4271 18.2366 28
      vertex 20.9271 17.1468 20
      vertex 22.4271 18.2366 20
    endloop
  endfacet
  facet normal -0.951067 0.308986 0
    outer loop
      vertex 17 20 20
      vertex 17.5729 21.7634 28
      vertex 17.5729 21.7634 20
    endloop
  endfacet
  facet normal -0.951067 0.308986 0
    outer loop
      vertex 17.5729 21.7634 28
      vertex 17 20 20
      vertex 17 20 28
    endloop
  endfacet
  facet normal 0 0 -1
    outer loop
      vertex 22.4271 18.2366 20
      vertex 22.4271 21.7634 20
      vertex 23 20 20
    endloop
  endfacet
  facet normal 0 0 -1
    outer loop
      vertex 20.9271 17.1468 20
      vertex 22.4271 21.7634 20
      vertex 22.4271 18.2366 20
    endloop
  endfacet
  facet normal 0 0 -1
    outer loop
      vertex 20.9271 17.1468 20
      vertex 20.9271 22.8532 20
      vertex 22.4271 21.7634 20
    endloop
  endfacet
  facet normal 0 0 -1
    outer loop
      vertex 19.0729 17.1468 20
      vertex 20.9271 22.8532 20
      vertex 20.9271 17.1468 20
    endloop
  endfacet
  facet normal 0 0 -1
    outer loop
      vertex 19.0729 17.1468 20
      vertex 19.0729 22.8532 20
      vertex 20.9271 22.8532 20
    endloop
  endfacet
  facet normal 0 0 -1
    outer loop
      vertex 17.5729 18.2366 20
      vertex 19.0729 22.8532 20
      vertex 19.0729 17.1468 20
    endloop
  endfacet
  facet normal 0 0 -1
    outer loop
      vertex 17.5729 18.2366 20
      vertex 17.5729 21.7634 20
      vertex 19.0729 22.8532 20
    endloop
  endfacet
  facet normal 0 -0 -1
    outer loop
      vertex 17.5729 21.7634 20
      vertex 17.5729 18.2366 20
      vertex 17 20 20
    endloop
  endfacet
  facet normal -0.309022 -0.951055 0
    outer loop
      vertex 18.7865 19.1183 28
      vertex 20.4635 18.5734 31
      vertex 18.7865 19.1183 31
    endloop
  endfacet
  facet normal -0.309022 -0.951055 -0
    outer loop
      vertex 20.4635 18.5734 31
      vertex 18.7865 19.1183 28
      vertex 20.4635 18.5734 28
    endloop
  endfacet
  facet normal -0.309022 0.951055 0
    outer loop
      vertex 20.4635 21.4266 28
      vertex 18.7865 20.8817 31
      vertex 20.4635 21.4266 31
    endloop
  endfacet
  facet normal -0.309022 0.951055 0
    outer loop
      vertex 18.7865 20.8817 31
      vertex 20.4635 21.4266 28
      vertex 18.7865 20.8817 28
    endloop
  endfacet
  facet normal 0.809013 0.587791 0
    outer loop
      vertex 21.5 20 31
      vertex 20.4635 21.4266 28
      vertex 20.4635 21.4266 31
    endloop
  endfacet
  facet normal 0.809013 0.587791 0
    outer loop
      vertex 20.4635 21.4266 28
      vertex 21.5 20 31
      vertex 21.5 20 28
    endloop
  endfacet
  facet normal -1 0 0
    outer loop
      vertex 18.7865 19.1183 28
      vertex 18.7865 20.8817 31
      vertex 18.7865 20.8817 28
    endloop
  endfacet
  facet normal -1 -0 0
    outer loop
      vertex 18.7865 20.8817 31
      vertex 18.7865 19.1183 28
      vertex 18.7865 19.1183 31
    endloop
  endfacet
  facet normal 0 0 1
    outer loop
      vertex 20.4635 21.4266 31
      vertex 20.4635 18.5734 31
      vertex 21.5 20 31
    endloop
  endfacet
  facet normal -0 0 1
    outer loop
      vertex 18.7865 20.8817 31
      vertex 20.4635 18.5734 31
      vertex 20.4635 21.4266 31
    endloop
  endfacet
  facet normal 0 0 1
    outer loop
      vertex 20.4635 18.5734 31
      vertex 18.7865 20.8817 31
      vertex 18.7865 19.1183 31
    endloop
  endfacet
  facet normal 0.809013 -0.587791 0
    outer loop
      vertex 20.4635 18.5734 31
      vertex 21.5 20 28
      vertex 21.5 20 31
    endloop
  endfacet
  facet normal 0.809013 -0.587791 0
    outer loop
      vertex 21.5 20 28
      vertex 20.4635 18.5734 31
      vertex 20.4635 18.5734 28
    endloop
  endfacet
  facet normal -0.951067 -0.308986 0
    outer loop
      vertex 52.5729 18.2366 20
      vertex 52 20 28
      vertex 52 20 20
    endloop
  endfacet
  facet normal -0.951067 -0.308986 0
    outer loop
      vertex 52 20 28
      vertex 52.5729 18.2366 20
      vertex 52.5729 18.2366 28
    endloop
  endfacet
  facet normal 0.58778 0.809021 -0
    outer loop
      vertex 57.4271 21.7634 20
      vertex 55.9271 22.8532 28
      vertex 57.4271 21.7634 28
    endloop
  endfacet
  facet normal 0.58778 0.809021 0
    outer loop
      vertex 55.9271 22.8532 28
      vertex 57.4271 21.7634 20
      vertex 55.9271 22.8532 20
    endloop
  endfacet
  facet normal 0.951067 0.308986 0
    outer loop
      vertex 58 20 28
      vertex 57.4271 21.7634 20
      vertex 57.4271 21.7634 28
    endloop
  endfacet
  facet normal 0.951067 0.308986 0
    outer loop
      vertex 57.4271 21.7634 20
      vertex 58 20 28
      vertex 58 20 20
    endloop
  endfacet
  facet normal 0 1 -0
    outer loop
      vertex 55.9271 22.8532 20
      vertex 54.0729 22.8532 28
      vertex 55.9271 22.8532 28
    endloop
  endfacet
  facet normal 0 1 0
    outer loop
      vertex 54.0729 22.8532 28
      vertex 55.9271 22.8532 20
      vertex 54.0729 22.8532 20
    endloop
  endfacet
  facet normal 0.58778 -0.809021 0
    outer loop
      vertex 55.9271 17.1468 20
      vertex 57.4271 18.2366 28
      vertex 55.9271 17.1468 28
    endloop
  endfacet
  facet normal 0.58778 -0.809021 0
    outer loop
      vertex 57.4271 18.2366 28
      vertex 55.9271 17.1468 20
      vertex 57.4271 18.2366 20
    endloop
  endfacet
  facet normal 0 0 1
    outer loop
      vertex 56.5 20 28
      vertex 58 20 28
      vertex 57.4271 21.7634 28
    endloop
  endfacet
  facet normal 0 0 1
    outer loop
      vertex 58 20 28
      vertex 56.5 20 28
      vertex 57.4271 18.2366 28
    endloop
  endfacet
  facet normal 0 0 1
    outer loop
      vertex 55.4635 21.4266 28
      vertex 57.4271 21.7634 28
      vertex 55.9271 22.8532 28
    endloop
  endfacet
  facet normal 0 0 1
    outer loop
      vertex 57.4271 21.7634 28
      vertex 55.4635 21.4266 28
      vertex 56.5 20 28
    endloop
  endfacet
  facet normal -0 0 1
    outer loop
      vertex 54.0729 22.8532 28
      vertex 55.4635 21.4266 28
      vertex 55.9271 22.8532 28
    endloop
  endfacet
  facet normal 0 0 1
    outer loop
      vertex 54.0729 22.8532 28
      vertex 53.7865 20.8817 28
      vertex 55.4635 21.4266 28
    endloop
  endfacet
  facet normal 0 0 1
    outer loop
      vertex 52 20 28
      vertex 53.7865 20.8817 28
      vertex 52.5729 21.7634 28
    endloop
  endfacet
  facet normal -0 0 1
    outer loop
      vertex 52.5729 21.7634 28
      vertex 53.7865 20.8817 28
      vertex 54.0729 22.8532 28
    endloop
  endfacet
  facet normal -0 0 1
    outer loop
      vertex 55.4635 18.5734 28
      vertex 57.4271 18.2366 28
      vertex 56.5 20 28
    endloop
  endfacet
  facet normal 0 0 1
    outer loop
      vertex 57.4271 18.2366 28
      vertex 55.4635 18.5734 28
      vertex 55.9271 17.1468 28
    endloop
  endfacet
  facet normal 0 0 1
    outer loop
      vertex 55.4635 18.5734 28
      vertex 54.0729 17.1468 28
      vertex 55.9271 17.1468 28
    endloop
  endfacet
  facet normal 0 0 1
    outer loop
      vertex 53.7865 19.1183 28
      vertex 54.0729 17.1468 28
      vertex 55.4635 18.5734 28
    endloop
  endfacet
  facet normal 0 0 1
    outer loop
      vertex 53.7865 20.8817 28
      vertex 52 20 28
      vertex 53.7865 19.1183 28
    endloop
  endfacet
  facet normal 0 0 1
    outer loop
      vertex 53.7865 19.1183 28
      vertex 52.5729 18.2366 28
      vertex 54.0729 17.1468 28
    endloop
  endfacet
  facet normal 0 0 1
    outer loop
      vertex 53.7865 19.1183 28
      vertex 52 20 28
      vertex 52.5729 18.2366 28
    endloop
  endfacet
  facet normal -0.58778 -0.809021 0
    outer loop
      vertex 52.5729 18.2366 20
      vertex 54.0729 17.1468 28
      vertex 52.5729 18.2366 28
    endloop
  endfacet
  facet normal -0.58778 -0.809021 -0
    outer loop
      vertex 54.0729 17.1468 28
      vertex 52.5729 18.2366 20
      vertex 54.0729 17.1468 20
    endloop
  endfacet
  facet normal 0.951067 -0.308986 0
    outer loop
      vertex 57.4271 18.2366 28
      vertex 58 20 20
      vertex 58 20 28
    endloop
  endfacet
  facet normal 0.951067 -0.308986 0
    outer loop
      vertex 58 20 20
      vertex 57.4271 18.2366 28
      vertex 57.4271 18.2366 20
    endloop
  endfacet
  facet normal -0.58778 0.809021 0
    outer loop
      vertex 54.0729 22.8532 20
      vertex 52.5729 21.7634 28
      vertex 54.0729 22.8532 28
    endloop
  endfacet
  facet normal -0.58778 0.809021 0
    outer loop
      vertex 52.5729 21.7634 28
      vertex 54.0729 22.8532 20
      vertex 52.5729 21.7634 20
    endloop
  endfacet
  facet normal 0 -1 0
    outer loop
      vertex 54.0729 17.1468 20
      vertex 55.9271 17.1468 28
      vertex 54.0729 17.1468 28
    endloop
  endfacet
  facet normal 0 -1 -0
    outer loop
      vertex 55.9271 17.1468 28
      vertex 54.0729 17.1468 20
      vertex 55.9271 17.1468 20
    endloop
  endfacet
  facet normal -0.951067 0.308986 0
    outer loop
      vertex 52 20 20
      vertex 52.5729 21.7634 28
      vertex 52.5729 21.7634 20
    endloop
  endfacet
  facet normal -0.951067 0.308986 0
    outer loop
      vertex 52.5729 21.7634 28
      vertex 52 20 20
      vertex 52 20 28
    endloop
  endfacet
  facet normal 0 0 -1
    outer loop
      vertex 57.4271 18.2366 20
      vertex 57.4271 21.7634 20
      vertex 58 20 20
    endloop
  endfacet
  facet normal 0 0 -1
    outer loop
      vertex 55.9271 17.1468 20
      vertex 57.4271 21.7634 20
      vertex 57.4271 18.2366 20
    endloop
  endfacet
  facet normal 0 0 -1
    outer loop
      vertex 55.9271 17.1468 20
      vertex 55.9271 22.8532 20
      vertex 57.4271 21.7634 20
    endloop
  endfacet
  facet normal 0 0 -1
    outer loop
      vertex 54.0729 17.1468 20
      vertex 55.9271 22.8532 20
      vertex 55.9271 17.1468 20
    endloop
  endfacet
  facet normal 0 0 -1
    outer loop
      vertex 54.0729 17.1468 20
      vertex 54.0729 22.8532 20
      vertex 55.9271 22.8532 20
    endloop
  endfacet
  facet normal 0 0 -1
    outer loop
      vertex 52.5729 18.2366 20
      vertex 54.0729 22.8532 20
      vertex 54.0729 17.1468 20
    endloop
  endfacet
  facet normal 0 0 -1
    outer loop
      vertex 52.5729 18.2366 20
      vertex 52.5729 21.7634 20
      vertex 54.0729 22.8532 20
    endloop
  endfacet
  facet normal 0 -0 -1
    outer loop
      vertex 52.5729 21.7634 20
      vertex 52.5729 18.2366 20
      vertex 52 20 20
    endloop
  endfacet
  facet normal -0.309022 -0.951055 0
    outer loop
      vertex 53.7865 19.1183 28
      vertex 55.4635 18.5734 31
      vertex 53.7865 19.1183 31
    endloop
  endfacet
  facet normal -0.309022 -0.951055 -0
    outer loop
      vertex 55.4635 18.5734 31
      vertex 53.7865 19.1183 28
      vertex 55.4635 18.5734 28
    endloop
  endfacet
  facet normal -0.309022 0.951055 0
    outer loop
      vertex 55.4635 21.4266 28
      vertex 53.7865 20.8817 31
      vertex 55.4635 21.4266 31
    endloop
  endfacet
  facet normal -0.309022 0.951055 0
    outer loop
      vertex 53.7865 20.8817 31
      vertex 55.4635 21.4266 28
      vertex 53.7865 20.8817 28
    endloop
  endfacet
  facet normal 0.809013 0.587791 0
    outer loop
      vertex 56.5 20 31
      vertex 55.4635 21.4266 28
      vertex 55.4635 21.4266 31
    endloop
  endfacet
  facet normal 0.809013 0.587791 0
    outer loop
      vertex 55.4635 21.4266 28
      vertex 56.5 20 31
      vertex 56.5 20 28
    endloop
  endfacet
  facet normal -1 0 0
    outer loop
      vertex 53.7865 19.1183 28
      vertex 53.7865 20.8817 31
      vertex 53.7865 20.8817 28
    endloop
  endfacet
  facet normal -1 -0 0
    outer loop
      vertex 53.7865 20.8817 31
      vertex 53.7865 19.1183 28
      vertex 53.7865 19.1183 31
    endloop
  endfacet
  facet normal 0 0 1
    outer loop
      vertex 55.4635 21.4266 31
      vertex 55.4635 18.5734 31
      vertex 56.5 20 31
    endloop
  endfacet
  facet normal -0 0 1
    outer loop
      vertex 53.7865 20.8817 31
      vertex 55.4635 18.5734 31
      vertex 55.4635 21.4266 31
    endloop
  endfacet
  facet normal 0 0 1
    outer loop
      vertex 55.4635 18.5734 31
      vertex 53.7865 20.8817 31
      vertex 53.7865 19.1183 31
    endloop
  endfacet
  facet normal 0.809013 -0.587791 0
    outer loop
      vertex 55.4635 18.5734 31
      vertex 56.5 20 28
      vertex 56.5 20 31
    endloop
  endfacet
  facet normal 0.809013 -0.587791 0
    outer loop
      vertex 56.5 20 28
      vertex 55.4635 18.5734 31
      vertex 55.4635 18.5734 28
    endloop
  endfacet
  facet normal -0.951067 -0.308986 0
    outer loop
      vertex 17.5729 53.2366 20
      vertex 17 55 28
      vertex 17 55 20
    endloop
  endfacet
  facet normal -0.951067 -0.308986 0
    outer loop
      vertex 17 55 28
      vertex 17.5729 53.2366 20
      vertex 17.5729 53.2366 28
    endloop
  endfacet
  facet normal 0.58778 0.809021 -0
    outer loop
      vertex 22.4271 56.7634 20
      vertex 20.9271 57.8532 28
      vertex 22.4271 56.7634 28
    endloop
  endfacet
  facet normal 0.58778 0.809021 0
    outer loop
      vertex 20.9271 57.8532 28
      vertex 22.4271 56.7634 20
      vertex 20.9271 57.8532 20
    endloop
  endfacet
  facet normal 0.951067 0.308986 0
    outer loop
      vertex 23 55 28
      vertex 22.4271 56.7634 20
      vertex 22.4271 56.7634 28
    endloop
  endfacet
  facet normal 0.951067 0.308986 0
    outer loop
      vertex 22.4271 56.7634 20
      vertex 23 55 28
      vertex 23 55 20
    endloop
  endfacet
  facet normal 0 1 -0
    outer loop
      vertex 20.9271 57.8532 20
      vertex 19.0729 57.8532 28
      vertex 20.9271 57.8532 28
    endloop
  endfacet
  facet normal 0 1 0
    outer loop
      vertex 19.0729 57.8532 28
      vertex 20.9271 57.8532 20
      vertex 19.0729 57.8532 20
    endloop
  endfacet
  facet normal 0 0 1
    outer loop
      vertex 21.5 55 28
      vertex 23 55 28
      vertex 22.4271 56.7634 28
    endloop
  endfacet
  facet normal 0 0 1
    outer loop
      vertex 23 55 28
      vertex 21.5 55 28
      vertex 22.4271 53.2366 28
    endloop
  endfacet
  facet normal 0 0 1
    outer loop
      vertex 20.4635 56.4266 28
      vertex 22.4271 56.7634 28
      vertex 20.9271 57.8532 28
    endloop
  endfacet
  facet normal 0 0 1
    outer loop
      vertex 22.4271 56.7634 28
      vertex 20.4635 56.4266 28
      vertex 21.5 55 28
    endloop
  endfacet
  facet normal -0 0 1
    outer loop
      vertex 19.0729 57.8532 28
      vertex 20.4635 56.4266 28
      vertex 20.9271 57.8532 28
    endloop
  endfacet
  facet normal 0 0 1
    outer loop
      vertex 19.0729 57.8532 28
      vertex 18.7865 55.8817 28
      vertex 20.4635 56.4266 28
    endloop
  endfacet
  facet normal 0 0 1
    outer loop
      vertex 17 55 28
      vertex 18.7865 55.8817 28
      vertex 17.5729 56.7634 28
    endloop
  endfacet
  facet normal -0 0 1
    outer loop
      vertex 17.5729 56.7634 28
      vertex 18.7865 55.8817 28
      vertex 19.0729 57.8532 28
    endloop
  endfacet
  facet normal -0 0 1
    outer loop
      vertex 20.4635 53.5734 28
      vertex 22.4271 53.2366 28
      vertex 21.5 55 28
    endloop
  endfacet
  facet normal 0 0 1
    outer loop
      vertex 22.4271 53.2366 28
      vertex 20.4635 53.5734 28
      vertex 20.9271 52.1468 28
    endloop
  endfacet
  facet normal 0 0 1
    outer loop
      vertex 20.4635 53.5734 28
      vertex 19.0729 52.1468 28
      vertex 20.9271 52.1468 28
    endloop
  endfacet
  facet normal 0 0 1
    outer loop
      vertex 18.7865 54.1183 28
      vertex 19.0729 52.1468 28
      vertex 20.4635 53.5734 28
    endloop
  endfacet
  facet normal 0 0 1
    outer loop
      vertex 18.7865 55.8817 28
      vertex 17 55 28
      vertex 18.7865 54.1183 28
    endloop
  endfacet
  facet normal 0 0 1
    outer loop
      vertex 18.7865 54.1183 28
      vertex 17.5729 53.2366 28
      vertex 19.0729 52.1468 28
    endloop
  endfacet
  facet normal 0 0 1
    outer loop
      vertex 18.7865 54.1183 28
      vertex 17 55 28
      vertex 17.5729 53.2366 28
    endloop
  endfacet
  facet normal -0.58778 -0.809021 0
    outer loop
      vertex 17.5729 53.2366 20
      vertex 19.0729 52.1468 28
      vertex 17.5729 53.2366 28
    endloop
  endfacet
  facet normal -0.58778 -0.809021 -0
    outer loop
      vertex 19.0729 52.1468 28
      vertex 17.5729 53.2366 20
      vertex 19.0729 52.1468 20
    endloop
  endfacet
  facet normal 0.951067 -0.308986 0
    outer loop
      vertex 22.4271 53.2366 28
      vertex 23 55 20
      vertex 23 55 28
    endloop
  endfacet
  facet normal 0.951067 -0.308986 0
    outer loop
      vertex 23 55 20
      vertex 22.4271 53.2366 28
      vertex 22.4271 53.2366 20
    endloop
  endfacet
  facet normal -0.58778 0.809021 0
    outer loop
      vertex 19.0729 57.8532 20
      vertex 17.5729 56.7634 28
      vertex 19.0729 57.8532 28
    endloop
  endfacet
  facet normal -0.58778 0.809021 0
    outer loop
      vertex 17.5729 56.7634 28
      vertex 19.0729 57.8532 20
      vertex 17.5729 56.7634 20
    endloop
  endfacet
  facet normal 0 -1 0
    outer loop
      vertex 19.0729 52.1468 20
      vertex 20.9271 52.1468 28
      vertex 19.0729 52.1468 28
    endloop
  endfacet
  facet normal 0 -1 -0
    outer loop
      vertex 20.9271 52.1468 28
      vertex 19.0729 52.1468 20
      vertex 20.9271 52.1468 20
    endloop
  endfacet
  facet normal 0.58778 -0.809021 0
    outer loop
      vertex 20.9271 52.1468 20
      vertex 22.4271 53.2366 28
      vertex 20.9271 52.1468 28
    endloop
  endfacet
  facet normal 0.58778 -0.809021 0
    outer loop
      vertex 22.4271 53.2366 28
      vertex 20.9271 52.1468 20
      vertex 22.4271 53.2366 20
    endloop
  endfacet
  facet normal -0.951067 0.308986 0
    outer loop
      vertex 17 55 20
      vertex 17.5729 56.7634 28
      vertex 17.5729 56.7634 20
    endloop
  endfacet
  facet normal -0.951067 0.308986 0
    outer loop
      vertex 17.5729 56.7634 28
      vertex 17 55 20
      vertex 17 55 28
    endloop
  endfacet
  facet normal 0 0 -1
    outer loop
      vertex 22.4271 53.2366 20
      vertex 22.4271 56.7634 20
      vertex 23 55 20
    endloop
  endfacet
  facet normal 0 0 -1
    outer loop
      vertex 20.9271 52.1468 20
      vertex 22.4271 56.7634 20
      vertex 22.4271 53.2366 20
    endloop
  endfacet
  facet normal 0 0 -1
    outer loop
      vertex 20.9271 52.1468 20
      vertex 20.9271 57.8532 20
      vertex 22.4271 56.7634 20
    endloop
  endfacet
  facet normal 0 0 -1
    outer loop
      vertex 19.0729 52.1468 20
      vertex 20.9271 57.8532 20
      vertex 20.9271 52.1468 20
    endloop
  endfacet
  facet normal 0 0 -1
    outer loop
      vertex 19.0729 52.1468 20
      vertex 19.0729 57.8532 20
      vertex 20.9271 57.8532 20
    endloop
  endfacet
  facet normal 0 0 -1
    outer loop
      vertex 17.5729 53.2366 20
      vertex 19.0729 57.8532 20
      vertex 19.0729 52.1468 20
    endloop
  endfacet
  facet normal 0 0 -1
    outer loop
      vertex 17.5729 53.2366 20
      vertex 17.5729 56.7634 20
      vertex 19.0729 57.8532 20
    endloop
  endfacet
  facet normal 0 -0 -1
    outer loop
      vertex 17.5729 56.7634 20
      vertex 17.5729 53.2366 20
      vertex 17 55 20
    endloop
  endfacet
  facet normal -0.309022 -0.951055 0
    outer loop
      vertex 18.7865 54.1183 28
      vertex 20.4635 53.5734 31
      vertex 18.7865 54.1183 31
    endloop
  endfacet
  facet normal -0.309022 -0.951055 -0
    outer loop
      vertex 20.4635 53.5734 31
      vertex 18.7865 54.1183 28
      vertex 20.4635 53.5734 28
    endloop
  endfacet
  facet normal -0.309022 0.951055 0
    outer loop
      vertex 20.4635 56.4266 28
      vertex 18.7865 55.8817 31
      vertex 20.4635 56.4266 31
    endloop
  endfacet
  facet normal -0.309022 0.951055 0
    outer loop
      vertex 18.7865 55.8817 31
      vertex 20.4635 56.4266 28
      vertex 18.7865 55.8817 28
    endloop
  endfacet
  facet normal 0.809013 0.587791 0
    outer loop
      vertex 21.5 55 31
      vertex 20.4635 56.4266 28
      vertex 20.4635 56.4266 31
    endloop
  endfacet
  facet normal 0.809013 0.587791 0
    outer loop
      vertex 20.4635 56.4266 28
      vertex 21.5 55 31
      vertex 21.5 55 28
    endloop
  endfacet
  facet normal -1 0 0
    outer loop
      vertex 18.7865 54.1183 28
      vertex 18.7865 55.8817 31
      vertex 18.7865 55.8817 28
    endloop
  endfacet
  facet normal -1 -0 0
    outer loop
      vertex 18.7865 55.8817 31
      vertex 18.7865 54.1183 28
      vertex 18.7865 54.1183 31
    endloop
  endfacet
  facet normal 0 0 1
    outer loop
      vertex 20.4635 56.4266 31
      vertex 20.4635 53.5734 31
      vertex 21.5 55 31
    endloop
  endfacet
  facet normal -0 0 1
    outer loop
      vertex 18.7865 55.8817 31
      vertex 20.4635 53.5734 31
      vertex 20.4635 56.4266 31
    endloop
  endfacet
  facet normal 0 0 1
    outer loop
      vertex 20.4635 53.5734 31
      vertex 18.7865 55.8817 31
      vertex 18.7865 54.1183 31
    endloop
  endfacet
  facet normal 0.809013 -0.587791 0
    outer loop
      vertex 20.4635 53.5734 31
      vertex 21.5 55 28
      vertex 21.5 55 31
    endloop
  endfacet
  facet normal 0.809013 -0.587791 0
    outer loop
      vertex 21.5 55 28
      vertex 20.4635 53.5734 31
      vertex 20.4635 53.5734 28
    endloop
  endfacet
  facet normal -0.951067 -0.308986 0
    outer loop
      vertex 52.5729 53.2366 20
      vertex 52 55 28
      vertex 52 55 20
    endloop
  endfacet
  facet normal -0.951067 -0.308986 0
    outer loop
      vertex 52 55 28
      vertex 52.5729 53.2366 20
      vertex 52.5729 53.2366 28
    endloop
  endfacet
  facet normal 0.58778 0.809021 -0
    outer loop
      vertex 57.4271 56.7634 20
      vertex 55.9271 57.8532 28
      vertex 57.4271 56.7634 28
    endloop
  endfacet
  facet normal 0.58778 0.809021 0
    outer loop
      vertex 55.9271 57.8532 28
      vertex 57.4271 56.7634 20
      vertex 55.9271 57.8532 20
    endloop
  endfacet
  facet normal 0.951067 0.308986 0
    outer loop
      vertex 58 55 28
      vertex 57.4271 56.7634 20
      vertex 57.4271 56.7634 28
    endloop
  endfacet
  facet normal 0.951067 0.308986 0
    outer loop
      vertex 57.4271 56.7634 20
      vertex 58 55 28
      vertex 58 55 20
    endloop
  endfacet
  facet normal 0 1 -0
    outer loop
      vertex 55.9271 57.8532 20
      vertex 54.0729 57.8532 28
      vertex 55.9271 57.8532 28
    endloop
  endfacet
  facet normal 0 1 0
    outer loop
      vertex 54.0729 57.8532 28
      vertex 55.9271 57.8532 20
      vertex 54.0729 57.8532 20
    endloop
  endfacet
  facet normal 0 0 1
    outer loop
      vertex 56.5 55 28
      vertex 58 55 28
      vertex 57.4271 56.7634 28
    endloop
  endfacet
  facet normal 0 0 1
    outer loop
      vertex 58 55 28
      vertex 56.5 55 28
      vertex 57.4271 53.2366 28
    endloop
  endfacet
  facet normal 0 0 1
    outer loop
      vertex 55.4635 56.4266 28
      vertex 57.4271 56.7634 28
      vertex 55.9271 57.8532 28
    endloop
  endfacet
  facet normal 0 0 1
    outer loop
      vertex 57.4271 56.7634 28
      vertex 55.4635 56.4266 28
      vertex 56.5 55 28
    endloop
  endfacet
  facet normal -0 0 1
    outer loop
      vertex 54.0729 57.8532 28
      vertex 55.4635 56.4266 28
      vertex 55.9271 57.8532 28
    endloop
  endfacet
  facet normal 0 0 1
    outer loop
      vertex 54.0729 57.8532 28
      vertex 53.7865 55.8817 28
      vertex 55.4635 56.4266 28
    endloop
  endfacet
  facet normal 0 0 1
    outer loop
      vertex 52 55 28
      vertex 53.7865 55.8817 28
      vertex 52.5729 56.7634 28
    endloop
  endfacet
  facet normal -0 0 1
    outer loop
      vertex 52.5729 56.7634 28
      vertex 53.7865 55.8817 28
      vertex 54.0729 57.8532 28
    endloop
  endfacet
  facet normal -0 0 1
    outer loop
      vertex 55.4635 53.5734 28
      vertex 57.4271 53.2366 28
      vertex 56.5 55 28
    endloop
  endfacet
  facet normal 0 0 1
    outer loop
      vertex 57.4271 53.2366 28
      vertex 55.4635 53.5734 28
      vertex 55.9271 52.1468 28
    endloop
  endfacet
  facet normal 0 0 1
    outer loop
      vertex 55.4635 53.5734 28
      vertex 54.0729 52.1468 28
      vertex 55.9271 52.1468 28
    endloop
  endfacet
  facet normal 0 0 1
    outer loop
      vertex 53.7865 54.1183 28
      vertex 54.0729 52.1468 28
      vertex 55.4635 53.5734 28
    endloop
  endfacet
  facet normal 0 0 1
    outer loop
      vertex 53.7865 55.8817 28
      vertex 52 55 28
      vertex 53.7865 54.1183 28
    endloop
  endfacet
  facet normal 0 0 1
    outer loop
      vertex 53.7865 54.1183 28
      vertex 52.5729 53.2366 28
      vertex 54.0729 52.1468 28
    endloop
  endfacet
  facet normal 0 0 1
    outer loop
      vertex 53.7865 54.1183 28
      vertex 52 55 28
      vertex 52.5729 53.2366 28
    endloop
  endfacet
  facet normal -0.58778 -0.809021 0
    outer loop
      vertex 52.5729 53.2366 20
      vertex 54.0729 52.1468 28
      vertex 52.5729 53.2366 28
    endloop
  endfacet
  facet normal -0.58778 -0.809021 -0
    outer loop
      vertex 54.0729 52.1468 28
      vertex 52.5729 53.2366 20
      vertex 54.0729 52.1468 20
    endloop
  endfacet
  facet normal 0.951067 -0.308986 0
    outer loop
      vertex 57.4271 53.2366 28
      vertex 58 55 20
      vertex 58 55 28
    endloop
  endfacet
  facet normal 0.951067 -0.308986 0
    outer loop
      vertex 58 55 20
      vertex 57.4271 53.2366 28
      vertex 57.4271 53.2366 20
    endloop
  endfacet
  facet normal -0.58778 0.809021 0
    outer loop
      vertex 54.0729 57.8532 20
      vertex 52.5729 56.7634 28
      vertex 54.0729 57.8532 28
    endloop
  endfacet
  facet normal -0.58778 0.809021 0
    outer loop
      vertex 52.5729 56.7634 28
      vertex 54.0729 57.8532 20
      vertex 52.5729 56.7634 20
    endloop
  endfacet
  facet normal 0 -1 0
    outer loop
      vertex 54.0729 52.1468 20
      vertex 55.9271 52.1468 28
      vertex 54.0729 52.1468 28
    endloop
  endfacet
  facet normal 0 -1 -0
    outer loop
      vertex 55.9271 52.1468 28
      vertex 54.0729 52.1468 20
      vertex 55.9271 52.1468 20
    endloop
  endfacet
  facet normal 0.58778 -0.809021 0
    outer loop
      vertex 55.9271 52.1468 20
      vertex 57.4271 53.2366 28
      vertex 55.9271 52.1468 28
    endloop
  endfacet
  facet normal 0.58778 -0.809021 0
    outer loop
      vertex 57.4271 53.2366 28
      vertex 55.9271 52.1468 20
      vertex 57.4271 53.2366 20
    endloop
  endfacet
  facet normal -0.951067 0.308986 0
    outer loop
      vertex 52 55 20
      vertex 52.5729 56.7634 28
      vertex 52.5729 56.7634 20
    endloop
  endfacet
  facet normal -0.951067 0.308986 0
    outer loop
      vertex 52.5729 56.7634 28
      vertex 52 55 20
      vertex 52 55 28
    endloop
  endfacet
  facet normal 0 0 -1
    outer loop
      vertex 57.4271 53.2366 20
      vertex 57.4271 56.7634 20
      vertex 58 55 20
    endloop
  endfacet
  facet normal 0 0 -1
    outer loop
      vertex 55.9271 52.1468 20
      vertex 57.4271 56.7634 20
      vertex 57.4271 53.2366 20
    endloop
  endfacet
  facet normal 0 0 -1
    outer loop
      vertex 55.9271 52.1468 20
      vertex 55.9271 57.8532 20
      vertex 57.4271 56.7634 20
    endloop
  endfacet
  facet normal 0 0 -1
    outer loop
      vertex 54.0729 52.1468 20
      vertex 55.9271 57.8532 20
      vertex 55.9271 52.1468 20
    endloop
  endfacet
  facet normal 0 0 -1
    outer loop
      vertex 54.0729 52.1468 20
      vertex 54.0729 57.8532 20
      vertex 55.9271 57.8532 20
    endloop
  endfacet
  facet normal 0 0 -1
    outer loop
      vertex 52.5729 53.2366 20
      vertex 54.0729 57.8532 20
      vertex 54.0729 52.1468 20
    endloop
  endfacet
  facet normal 0 0 -1
    outer loop
      vertex 52.5729 53.2366 20
      vertex 52.5729 56.7634 20
      vertex 54.0729 57.8532 20
    endloop
  endfacet
  facet normal 0 -0 -1
    outer loop
      vertex 52.5729 56.7634 20
      vertex 52.5729 53.2366 20
      vertex 52 55 20
    endloop
  endfacet
  facet normal -0.309022 -0.951055 0
    outer loop
      vertex 53.7865 54.1183 28
      vertex 55.4635 53.5734 31
      vertex 53.7865 54.1183 31
    endloop
  endfacet
  facet normal -0.309022 -0.951055 -0
    outer loop
      vertex 55.4635 53.5734 31
      vertex 53.7865 54.1183 28
      vertex 55.4635 53.5734 28
    endloop
  endfacet
  facet normal -0.309022 0.951055 0
    outer loop
      vertex 55.4635 56.4266 28
      vertex 53.7865 55.8817 31
      vertex 55.4635 56.4266 31
    endloop
  endfacet
  facet normal -0.309022 0.951055 0
    outer loop
      vertex 53.7865 55.8817 31
      vertex 55.4635 56.4266 28
      vertex 53.7865 55.8817 28
    endloop
  endfacet
  facet normal 0.809013 0.587791 0
    outer loop
      vertex 56.5 55 31
      vertex 55.4635 56.4266 28
      vertex 55.4635 56.4266 31
    endloop
  endfacet
  facet normal 0.809013 0.587791 0
    outer loop
      vertex 55.4635 56.4266 28
      vertex 56.5 55 31
      vertex 56.5 55 28
    endloop
  endfacet
  facet normal -1 0 0
    outer loop
      vertex 53.7865 54.1183 28
      vertex 53.7865 55.8817 31
      vertex 53.7865 55.8817 28
    endloop
  endfacet
  facet normal -1 -0 0
    outer loop
      vertex 53.7865 55.8817 31
      vertex 53.7865 54.1183 28
      vertex 53.7865 54.1183 31
    endloop
  endfacet
  facet normal 0 0 1
    outer loop
      vertex 55.4635 56.4266 31
      vertex 55.4635 53.5734 31
      vertex 56.5 55 31
    endloop
  endfacet
  facet normal -0 0 1
    outer loop
      vertex 53.7865 55.8817 31
      vertex 55.4635 53.5734 31
      vertex 55.4635 56.4266 31
    endloop
  endfacet
  facet normal 0 0 1
    outer loop
      vertex 55.4635 53.5734 31
      vertex 53.7865 55.8817 31
      vertex 53.7865 54.1183 31
    endloop
  endfacet
  facet normal 0.809013 -0.587791 0
    outer loop
      vertex 55.4635 53.5734 31
      vertex 56.5 55 28
      vertex 56.5 55 31
    endloop
  endfacet
  facet normal 0.809013 -0.587791 0
    outer loop
      vertex 56.5 55 28
      vertex 55.4635 53.5734 31
      vertex 55.4635 53.5734 28
    endloop
  endfacet
  facet normal 1 -0 0
    outer loop
      vertex 88.5 8 105
      vertex 88.5 16 100
      vertex 88.5 16 105
    endloop
  endfacet
  facet normal 1 0 0
    outer loop
      vertex 88.5 16 100
      vertex 88.5 8 105
      vertex 88.5 8 100
    endloop
  endfacet
  facet normal -0 0 1
    outer loop
      vertex 38.5 16 105
      vertex 88.5 8 105
      vertex 88.5 16 105
    endloop
  endfacet
  facet normal 0 0 1
    outer loop
      vertex 88.5 8 105
      vertex 38.5 16 105
      vertex 38.5 8 105
    endloop
  endfacet
  facet normal 0 0 -1
    outer loop
      vertex 38.5 8 100
      vertex 88.5 16 100
      vertex 88.5 8 100
    endloop
  endfacet
  facet normal -0 0 -1
    outer loop
      vertex 88.5 16 100
      vertex 38.5 8 100
      vertex 38.5 16 100
    endloop
  endfacet
  facet normal -1 0 0
    outer loop
      vertex 38.5 8 100
      vertex 38.5 16 105
      vertex 38.5 16 100
    endloop
  endfacet
  facet normal -1 -0 0
    outer loop
      vertex 38.5 16 105
      vertex 38.5 8 100
      vertex 38.5 8 105
    endloop
  endfacet
  facet normal 0 1 -0
    outer loop
      vertex 88.5 16 100
      vertex 38.5 16 105
      vertex 88.5 16 105
    endloop
  endfacet
  facet normal 0 1 0
    outer loop
      vertex 38.5 16 105
      vertex 88.5 16 100
      vertex 38.5 16 100
    endloop
  endfacet
  facet normal 0 -1 0
    outer loop
      vertex 38.5 8 100
      vertex 88.5 8 105
      vertex 38.5 8 105
    endloop
  endfacet
  facet normal 0 -1 -0
    outer loop
      vertex 88.5 8 105
      vertex 38.5 8 100
      vertex 88.5 8 100
    endloop
  endfacet
  facet normal -1 0 0
    outer loop
      vertex 88.5 0 120
      vertex 88.5 3 139
      vertex 88.5 3 120
    endloop
  endfacet
  facet normal -1 -0 0
    outer loop
      vertex 88.5 3 139
      vertex 88.5 0 120
      vertex 88.5 0 139
    endloop
  endfacet
  facet normal 0 0 -1
    outer loop
      vertex 38.5 0 139
      vertex 88.5 3 139
      vertex 88.5 0 139
    endloop
  endfacet
  facet normal -0 0 -1
    outer loop
      vertex 88.5 3 139
      vertex 38.5 0 139
      vertex 38.5 3 139
    endloop
  endfacet
  facet normal -0 0 1
    outer loop
      vertex 38.5 3 120
      vertex 88.5 0 120
      vertex 88.5 3 120
    endloop
  endfacet
  facet normal 0 0 1
    outer loop
      vertex 88.5 0 120
      vertex 38.5 3 120
      vertex 38.5 0 120
    endloop
  endfacet
  facet normal 1 -0 0
    outer loop
      vertex 38.5 0 139
      vertex 38.5 3 120
      vertex 38.5 3 139
    endloop
  endfacet
  facet normal 1 0 0
    outer loop
      vertex 38.5 3 120
      vertex 38.5 0 139
      vertex 38.5 0 120
    endloop
  endfacet
  facet normal 0 0 -1
    outer loop
      vertex 98.8888 3 85
      vertex 99.7675 0.914525 85
      vertex 99.8786 0 85
    endloop
  endfacet
  facet normal 0 0 -1
    outer loop
      vertex 99.7675 0.914525 85
      vertex 98.8888 3 85
      vertex 99.0836 2.71778 85
    endloop
  endfacet
  facet normal 0 0 -1
    outer loop
      vertex 99.8786 0 85
      vertex 85.1112 3 85
      vertex 98.8888 3 85
    endloop
  endfacet
  facet normal 0 0 -1
    outer loop
      vertex 84.1214 0 85
      vertex 85.1112 3 85
      vertex 99.8786 0 85
    endloop
  endfacet
  facet normal 0 -0 -1
    outer loop
      vertex 84.2325 0.914525 85
      vertex 85.1112 3 85
      vertex 84.1214 0 85
    endloop
  endfacet
  facet normal 0 0 -1
    outer loop
      vertex 85.1112 3 85
      vertex 84.2325 0.914525 85
      vertex 84.9164 2.71778 85
    endloop
  endfacet
  facet normal -0.935014 -0.354612 0
    outer loop
      vertex 99.7675 0.914525 80
      vertex 99.0836 2.71778 85
      vertex 99.0836 2.71778 80
    endloop
  endfacet
  facet normal -0.935014 -0.354612 0
    outer loop
      vertex 99.0836 2.71778 85
      vertex 99.7675 0.914525 80
      vertex 99.7675 0.914525 85
    endloop
  endfacet
  facet normal -0.992702 -0.120597 0
    outer loop
      vertex 99.8786 0 80
      vertex 99.7675 0.914525 85
      vertex 99.7675 0.914525 80
    endloop
  endfacet
  facet normal -0.992702 -0.120597 0
    outer loop
      vertex 99.7675 0.914525 85
      vertex 99.8786 0 80
      vertex 99.8786 0 85
    endloop
  endfacet
  facet normal -0.822987 -0.56806 0
    outer loop
      vertex 99.0836 2.71778 80
      vertex 98.8888 3 85
      vertex 98.8888 3 80
    endloop
  endfacet
  facet normal -0.822987 -0.56806 0
    outer loop
      vertex 98.8888 3 85
      vertex 99.0836 2.71778 80
      vertex 99.0836 2.71778 85
    endloop
  endfacet
  facet normal 0.992702 -0.120597 0
    outer loop
      vertex 84.1214 0 85
      vertex 84.2325 0.914525 80
      vertex 84.2325 0.914525 85
    endloop
  endfacet
  facet normal 0.992702 -0.120597 0
    outer loop
      vertex 84.2325 0.914525 80
      vertex 84.1214 0 85
      vertex 84.1214 0 80
    endloop
  endfacet
  facet normal 0 0 1
    outer loop
      vertex 98.8888 3 80
      vertex 99.7675 0.914525 80
      vertex 99.0836 2.71778 80
    endloop
  endfacet
  facet normal 0 0 1
    outer loop
      vertex 99.7675 0.914525 80
      vertex 98.8888 3 80
      vertex 99.8786 0 80
    endloop
  endfacet
  facet normal -0 0 1
    outer loop
      vertex 85.1112 3 80
      vertex 99.8786 0 80
      vertex 98.8888 3 80
    endloop
  endfacet
  facet normal 0 0 1
    outer loop
      vertex 84.2325 0.914525 80
      vertex 85.1112 3 80
      vertex 84.9164 2.71778 80
    endloop
  endfacet
  facet normal 0 0 1
    outer loop
      vertex 85.1112 3 80
      vertex 84.2325 0.914525 80
      vertex 84.1214 0 80
    endloop
  endfacet
  facet normal 0 0 1
    outer loop
      vertex 85.1112 3 80
      vertex 84.1214 0 80
      vertex 99.8786 0 80
    endloop
  endfacet
  facet normal 0.822987 -0.56806 0
    outer loop
      vertex 84.9164 2.71778 85
      vertex 85.1112 3 80
      vertex 85.1112 3 85
    endloop
  endfacet
  facet normal 0.822987 -0.56806 0
    outer loop
      vertex 85.1112 3 80
      vertex 84.9164 2.71778 85
      vertex 84.9164 2.71778 80
    endloop
  endfacet
  facet normal 0.935014 -0.354612 0
    outer loop
      vertex 84.2325 0.914525 85
      vertex 84.9164 2.71778 80
      vertex 84.9164 2.71778 85
    endloop
  endfacet
  facet normal 0.935014 -0.354612 0
    outer loop
      vertex 84.9164 2.71778 80
      vertex 84.2325 0.914525 85
      vertex 84.2325 0.914525 80
    endloop
  endfacet
  facet normal -0.879479 -0.475938 0
    outer loop
      vertex 30.6276 0.931961 110
      vertex 29.6954 2.65456 115
      vertex 29.6954 2.65456 110
    endloop
  endfacet
  facet normal -0.879479 -0.475938 0
    outer loop
      vertex 29.6954 2.65456 115
      vertex 30.6276 0.931961 110
      vertex 30.6276 0.931961 115
    endloop
  endfacet
  facet normal -0.986364 -0.164577 0
    outer loop
      vertex 30.7831 0 110
      vertex 30.6276 0.931961 115
      vertex 30.6276 0.931961 110
    endloop
  endfacet
  facet normal -0.986364 -0.164577 0
    outer loop
      vertex 30.6276 0.931961 115
      vertex 30.7831 0 110
      vertex 30.7831 0 115
    endloop
  endfacet
  facet normal -0.677231 -0.735771 0
    outer loop
      vertex 29.3201 3 110
      vertex 29.6954 2.65456 115
      vertex 29.3201 3 115
    endloop
  endfacet
  facet normal -0.677231 -0.735771 -0
    outer loop
      vertex 29.6954 2.65456 115
      vertex 29.3201 3 110
      vertex 29.6954 2.65456 110
    endloop
  endfacet
  facet normal 0.789133 -0.614223 0
    outer loop
      vertex 19.7671 1.83189 115
      vertex 20.6763 3 110
      vertex 20.6763 3 115
    endloop
  endfacet
  facet normal 0.789133 -0.614223 0
    outer loop
      vertex 20.6763 3 110
      vertex 19.7671 1.83189 115
      vertex 19.7671 1.83189 110
    endloop
  endfacet
  facet normal 0 0 -1
    outer loop
      vertex 29.3201 3 115
      vertex 30.6276 0.931961 115
      vertex 30.7831 0 115
    endloop
  endfacet
  facet normal 0 0 -1
    outer loop
      vertex 30.6276 0.931961 115
      vertex 29.3201 3 115
      vertex 29.6954 2.65456 115
    endloop
  endfacet
  facet normal 0 0 -1
    outer loop
      vertex 30.7831 0 115
      vertex 20.6763 3 115
      vertex 29.3201 3 115
    endloop
  endfacet
  facet normal 0 0 -1
    outer loop
      vertex 19.1382 0 115
      vertex 20.6763 3 115
      vertex 30.7831 0 115
    endloop
  endfacet
  facet normal 0 0 -1
    outer loop
      vertex 20.6763 3 115
      vertex 19.1382 0 115
      vertex 19.7671 1.83189 115
    endloop
  endfacet
  facet normal 0.945815 -0.324705 0
    outer loop
      vertex 19.1382 0 115
      vertex 19.7671 1.83189 110
      vertex 19.7671 1.83189 115
    endloop
  endfacet
  facet normal 0.945815 -0.324705 0
    outer loop
      vertex 19.7671 1.83189 110
      vertex 19.1382 0 115
      vertex 19.1382 0 110
    endloop
  endfacet
  facet normal 0 0 1
    outer loop
      vertex 29.3201 3 110
      vertex 30.6276 0.931961 110
      vertex 29.6954 2.65456 110
    endloop
  endfacet
  facet normal 0 0 1
    outer loop
      vertex 30.6276 0.931961 110
      vertex 29.3201 3 110
      vertex 30.7831 0 110
    endloop
  endfacet
  facet normal -0 0 1
    outer loop
      vertex 20.6763 3 110
      vertex 30.7831 0 110
      vertex 29.3201 3 110
    endloop
  endfacet
  facet normal 0 0 1
    outer loop
      vertex 19.1382 0 110
      vertex 20.6763 3 110
      vertex 19.7671 1.83189 110
    endloop
  endfacet
  facet normal 0 0 1
    outer loop
      vertex 20.6763 3 110
      vertex 19.1382 0 110
      vertex 30.7831 0 110
    endloop
  endfacet
  facet normal -0.879308 -0.476254 0
    outer loop
      vertex 107.628 0.931961 110
      vertex 106.695 2.65456 115
      vertex 106.695 2.65456 110
    endloop
  endfacet
  facet normal -0.879308 -0.476254 0
    outer loop
      vertex 106.695 2.65456 115
      vertex 107.628 0.931961 110
      vertex 107.628 0.931961 115
    endloop
  endfacet
  facet normal -0.98645 -0.164062 0
    outer loop
      vertex 107.783 0 110
      vertex 107.628 0.931961 115
      vertex 107.628 0.931961 110
    endloop
  endfacet
  facet normal -0.98645 -0.164062 0
    outer loop
      vertex 107.628 0.931961 115
      vertex 107.783 0 110
      vertex 107.783 0 115
    endloop
  endfacet
  facet normal -0.677524 -0.735501 0
    outer loop
      vertex 106.32 3 110
      vertex 106.695 2.65456 115
      vertex 106.32 3 115
    endloop
  endfacet
  facet normal -0.677524 -0.735501 -0
    outer loop
      vertex 106.695 2.65456 115
      vertex 106.32 3 110
      vertex 106.695 2.65456 110
    endloop
  endfacet
  facet normal 0.789133 -0.614223 0
    outer loop
      vertex 96.7671 1.83189 115
      vertex 97.6763 3 110
      vertex 97.6763 3 115
    endloop
  endfacet
  facet normal 0.789133 -0.614223 0
    outer loop
      vertex 97.6763 3 110
      vertex 96.7671 1.83189 115
      vertex 96.7671 1.83189 110
    endloop
  endfacet
  facet normal 0 0 -1
    outer loop
      vertex 106.32 3 115
      vertex 107.628 0.931961 115
      vertex 107.783 0 115
    endloop
  endfacet
  facet normal 0 0 -1
    outer loop
      vertex 107.628 0.931961 115
      vertex 106.32 3 115
      vertex 106.695 2.65456 115
    endloop
  endfacet
  facet normal 0 0 -1
    outer loop
      vertex 107.783 0 115
      vertex 97.6763 3 115
      vertex 106.32 3 115
    endloop
  endfacet
  facet normal 0 0 -1
    outer loop
      vertex 96.1382 0 115
      vertex 97.6763 3 115
      vertex 107.783 0 115
    endloop
  endfacet
  facet normal 0 0 -1
    outer loop
      vertex 97.6763 3 115
      vertex 96.1382 0 115
      vertex 96.7671 1.83189 115
    endloop
  endfacet
  facet normal 0.945815 -0.324705 0
    outer loop
      vertex 96.1382 0 115
      vertex 96.7671 1.83189 110
      vertex 96.7671 1.83189 115
    endloop
  endfacet
  facet normal 0.945815 -0.324705 0
    outer loop
      vertex 96.7671 1.83189 110
      vertex 96.1382 0 115
      vertex 96.1382 0 110
    endloop
  endfacet
  facet normal 0 0 1
    outer loop
      vertex 106.32 3 110
      vertex 107.628 0.931961 110
      vertex 106.695 2.65456 110
    endloop
  endfacet
  facet normal 0 0 1
    outer loop
      vertex 107.628 0.931961 110
      vertex 106.32 3 110
      vertex 107.783 0 110
    endloop
  endfacet
  facet normal -0 0 1
    outer loop
      vertex 97.6763 3 110
      vertex 107.783 0 110
      vertex 106.32 3 110
    endloop
  endfacet
  facet normal 0 0 1
    outer loop
      vertex 96.1382 0 110
      vertex 97.6763 3 110
      vertex 96.7671 1.83189 110
    endloop
  endfacet
  facet normal 0 0 1
    outer loop
      vertex 97.6763 3 110
      vertex 96.1382 0 110
      vertex 107.783 0 110
    endloop
  endfacet
  facet normal -0.951053 -0.309028 0
    outer loop
      vertex 74.2596 1.28703 40
      vertex 73.703 3 45
      vertex 73.703 3 40
    endloop
  endfacet
  facet normal -0.951053 -0.309028 0
    outer loop
      vertex 73.703 3 45
      vertex 74.2596 1.28703 40
      vertex 74.2596 1.28703 45
    endloop
  endfacet
  facet normal -0.99452 -0.10455 0
    outer loop
      vertex 74.3949 0 40
      vertex 74.2596 1.28703 45
      vertex 74.2596 1.28703 40
    endloop
  endfacet
  facet normal -0.99452 -0.10455 0
    outer loop
      vertex 74.2596 1.28703 45
      vertex 74.3949 0 40
      vertex 74.3949 0 45
    endloop
  endfacet
  facet normal 0.99452 -0.10455 0
    outer loop
      vertex 52.6051 0 45
      vertex 52.7404 1.28703 40
      vertex 52.7404 1.28703 45
    endloop
  endfacet
  facet normal 0.99452 -0.10455 0
    outer loop
      vertex 52.7404 1.28703 40
      vertex 52.6051 0 45
      vertex 52.6051 0 40
    endloop
  endfacet
  facet normal 0.951053 -0.309028 0
    outer loop
      vertex 52.7404 1.28703 45
      vertex 53.297 3 40
      vertex 53.297 3 45
    endloop
  endfacet
  facet normal 0.951053 -0.309028 0
    outer loop
      vertex 53.297 3 40
      vertex 52.7404 1.28703 45
      vertex 52.7404 1.28703 40
    endloop
  endfacet
  facet normal 0 0 1
    outer loop
      vertex 73.703 3 40
      vertex 74.3949 0 40
      vertex 74.2596 1.28703 40
    endloop
  endfacet
  facet normal -0 0 1
    outer loop
      vertex 53.297 3 40
      vertex 74.3949 0 40
      vertex 73.703 3 40
    endloop
  endfacet
  facet normal 0 0 1
    outer loop
      vertex 52.6051 0 40
      vertex 53.297 3 40
      vertex 52.7404 1.28703 40
    endloop
  endfacet
  facet normal 0 0 1
    outer loop
      vertex 53.297 3 40
      vertex 52.6051 0 40
      vertex 74.3949 0 40
    endloop
  endfacet
  facet normal 0 0 -1
    outer loop
      vertex 74.3949 0 45
      vertex 73.703 3 45
      vertex 74.2596 1.28703 45
    endloop
  endfacet
  facet normal 0 0 -1
    outer loop
      vertex 74.3949 0 45
      vertex 53.297 3 45
      vertex 73.703 3 45
    endloop
  endfacet
  facet normal 0 0 -1
    outer loop
      vertex 52.6051 0 45
      vertex 53.297 3 45
      vertex 74.3949 0 45
    endloop
  endfacet
  facet normal 0 0 -1
    outer loop
      vertex 53.297 3 45
      vertex 52.6051 0 45
      vertex 52.7404 1.28703 45
    endloop
  endfacet
  facet normal 1 -0 0
    outer loop
      vertex 264 0 3
      vertex 264 80 0
      vertex 264 80 3
    endloop
  endfacet
  facet normal 1 0 0
    outer loop
      vertex 264 80 0
      vertex 264 0 3
      vertex 264 0 0
    endloop
  endfacet
  facet normal 0 0 1
    outer loop
      vertex 264 80 3
      vertex 211.17 40 3
      vertex 264 0 3
    endloop
  endfacet
  facet normal 0 0 1
    outer loop
      vertex 264 80 3
      vertex 210.937 42.2184 3
      vertex 211.17 40 3
    endloop
  endfacet
  facet normal 0 0 1
    outer loop
      vertex 264 80 3
      vertex 210.248 44.3399 3
      vertex 210.937 42.2184 3
    endloop
  endfacet
  facet normal 0 0 1
    outer loop
      vertex 264 80 3
      vertex 209.132 46.2717 3
      vertex 210.248 44.3399 3
    endloop
  endfacet
  facet normal 0 0 1
    outer loop
      vertex 264 80 3
      vertex 207.64 47.9294 3
      vertex 209.132 46.2717 3
    endloop
  endfacet
  facet normal 0 0 1
    outer loop
      vertex 264 80 3
      vertex 205.835 49.2405 3
      vertex 207.64 47.9294 3
    endloop
  endfacet
  facet normal 0 0 1
    outer loop
      vertex 264 80 3
      vertex 203.797 50.1478 3
      vertex 205.835 49.2405 3
    endloop
  endfacet
  facet normal 0 0 1
    outer loop
      vertex 264 80 3
      vertex 201.615 50.6115 3
      vertex 203.797 50.1478 3
    endloop
  endfacet
  facet normal 0 0 1
    outer loop
      vertex 264 80 3
      vertex 199.385 50.6115 3
      vertex 201.615 50.6115 3
    endloop
  endfacet
  facet normal -0 0 1
    outer loop
      vertex 137 80 3
      vertex 199.385 50.6115 3
      vertex 264 80 3
    endloop
  endfacet
  facet normal 0 0 1
    outer loop
      vertex 199.385 50.6115 3
      vertex 137 80 3
      vertex 197.203 50.1478 3
    endloop
  endfacet
  facet normal 0 0 1
    outer loop
      vertex 190.063 42.2184 3
      vertex 137 80 3
      vertex 189.83 40 3
    endloop
  endfacet
  facet normal 0 0 1
    outer loop
      vertex 190.752 44.3399 3
      vertex 137 80 3
      vertex 190.063 42.2184 3
    endloop
  endfacet
  facet normal 0 0 1
    outer loop
      vertex 191.868 46.2717 3
      vertex 137 80 3
      vertex 190.752 44.3399 3
    endloop
  endfacet
  facet normal 0 0 1
    outer loop
      vertex 193.36 47.9294 3
      vertex 137 80 3
      vertex 191.868 46.2717 3
    endloop
  endfacet
  facet normal 0 0 1
    outer loop
      vertex 195.165 49.2405 3
      vertex 137 80 3
      vertex 193.36 47.9294 3
    endloop
  endfacet
  facet normal 0 0 1
    outer loop
      vertex 197.203 50.1478 3
      vertex 137 80 3
      vertex 195.165 49.2405 3
    endloop
  endfacet
  facet normal -0 0 1
    outer loop
      vertex 210.937 37.7816 3
      vertex 264 0 3
      vertex 211.17 40 3
    endloop
  endfacet
  facet normal -0 0 1
    outer loop
      vertex 210.248 35.6601 3
      vertex 264 0 3
      vertex 210.937 37.7816 3
    endloop
  endfacet
  facet normal -0 0 1
    outer loop
      vertex 209.132 33.7283 3
      vertex 264 0 3
      vertex 210.248 35.6601 3
    endloop
  endfacet
  facet normal -0 0 1
    outer loop
      vertex 207.64 32.0706 3
      vertex 264 0 3
      vertex 209.132 33.7283 3
    endloop
  endfacet
  facet normal -0 0 1
    outer loop
      vertex 205.835 30.7595 3
      vertex 264 0 3
      vertex 207.64 32.0706 3
    endloop
  endfacet
  facet normal -0 0 1
    outer loop
      vertex 203.797 29.8522 3
      vertex 264 0 3
      vertex 205.835 30.7595 3
    endloop
  endfacet
  facet normal -0 0 1
    outer loop
      vertex 201.615 29.3885 3
      vertex 264 0 3
      vertex 203.797 29.8522 3
    endloop
  endfacet
  facet normal -0 0 1
    outer loop
      vertex 199.385 29.3885 3
      vertex 264 0 3
      vertex 201.615 29.3885 3
    endloop
  endfacet
  facet normal 0 0 1
    outer loop
      vertex 137 0 3
      vertex 199.385 29.3885 3
      vertex 197.203 29.8522 3
    endloop
  endfacet
  facet normal 0 0 1
    outer loop
      vertex 137 0 3
      vertex 197.203 29.8522 3
      vertex 195.165 30.7595 3
    endloop
  endfacet
  facet normal 0 0 1
    outer loop
      vertex 137 0 3
      vertex 189.83 40 3
      vertex 137 80 3
    endloop
  endfacet
  facet normal 0 0 1
    outer loop
      vertex 189.83 40 3
      vertex 137 0 3
      vertex 190.063 37.7816 3
    endloop
  endfacet
  facet normal 0 0 1
    outer loop
      vertex 190.063 37.7816 3
      vertex 137 0 3
      vertex 190.752 35.6601 3
    endloop
  endfacet
  facet normal 0 0 1
    outer loop
      vertex 190.752 35.6601 3
      vertex 137 0 3
      vertex 191.868 33.7283 3
    endloop
  endfacet
  facet normal 0 0 1
    outer loop
      vertex 199.385 29.3885 3
      vertex 137 0 3
      vertex 264 0 3
    endloop
  endfacet
  facet normal 0 0 1
    outer loop
      vertex 193.36 32.0706 3
      vertex 137 0 3
      vertex 195.165 30.7595 3
    endloop
  endfacet
  facet normal 0 0 1
    outer loop
      vertex 191.868 33.7283 3
      vertex 137 0 3
      vertex 193.36 32.0706 3
    endloop
  endfacet
  facet normal 0 0 -1
    outer loop
      vertex 264 0 0
      vertex 260 4 0
      vertex 264 80 0
    endloop
  endfacet
  facet normal 0 0 -1
    outer loop
      vertex 264 0 0
      vertex 141 4 0
      vertex 260 4 0
    endloop
  endfacet
  facet normal -0 0 -1
    outer loop
      vertex 141 4 0
      vertex 137 0 0
      vertex 141 76 0
    endloop
  endfacet
  facet normal 0 0 -1
    outer loop
      vertex 137 0 0
      vertex 141 4 0
      vertex 264 0 0
    endloop
  endfacet
  facet normal 0 0 -1
    outer loop
      vertex 260 76 0
      vertex 264 80 0
      vertex 260 4 0
    endloop
  endfacet
  facet normal 0 0 -1
    outer loop
      vertex 141 76 0
      vertex 264 80 0
      vertex 260 76 0
    endloop
  endfacet
  facet normal 0 0 -1
    outer loop
      vertex 141 76 0
      vertex 137 80 0
      vertex 264 80 0
    endloop
  endfacet
  facet normal 0 0 -1
    outer loop
      vertex 137 80 0
      vertex 141 76 0
      vertex 137 0 0
    endloop
  endfacet
  facet normal 0 0 1
    outer loop
      vertex 210.937 42.2184 0
      vertex 210.937 37.7816 0
      vertex 211.17 40 0
    endloop
  endfacet
  facet normal 0 0 1
    outer loop
      vertex 210.248 44.3399 0
      vertex 210.937 37.7816 0
      vertex 210.937 42.2184 0
    endloop
  endfacet
  facet normal 0 0 1
    outer loop
      vertex 210.248 44.3399 0
      vertex 210.248 35.6601 0
      vertex 210.937 37.7816 0
    endloop
  endfacet
  facet normal 0 0 1
    outer loop
      vertex 209.132 46.2717 0
      vertex 210.248 35.6601 0
      vertex 210.248 44.3399 0
    endloop
  endfacet
  facet normal 0 0 1
    outer loop
      vertex 209.132 46.2717 0
      vertex 209.132 33.7283 0
      vertex 210.248 35.6601 0
    endloop
  endfacet
  facet normal 0 0 1
    outer loop
      vertex 207.64 47.9294 0
      vertex 209.132 33.7283 0
      vertex 209.132 46.2717 0
    endloop
  endfacet
  facet normal 0 0 1
    outer loop
      vertex 207.64 47.9294 0
      vertex 207.64 32.0706 0
      vertex 209.132 33.7283 0
    endloop
  endfacet
  facet normal 0 0 1
    outer loop
      vertex 205.835 49.2405 0
      vertex 207.64 32.0706 0
      vertex 207.64 47.9294 0
    endloop
  endfacet
  facet normal 0 0 1
    outer loop
      vertex 205.835 49.2405 0
      vertex 205.835 30.7595 0
      vertex 207.64 32.0706 0
    endloop
  endfacet
  facet normal 0 0 1
    outer loop
      vertex 203.797 50.1478 0
      vertex 205.835 30.7595 0
      vertex 205.835 49.2405 0
    endloop
  endfacet
  facet normal 0 0 1
    outer loop
      vertex 203.797 50.1478 0
      vertex 203.797 29.8522 0
      vertex 205.835 30.7595 0
    endloop
  endfacet
  facet normal 0 0 1
    outer loop
      vertex 201.615 50.6115 0
      vertex 203.797 29.8522 0
      vertex 203.797 50.1478 0
    endloop
  endfacet
  facet normal 0 0 1
    outer loop
      vertex 201.615 50.6115 0
      vertex 201.615 29.3885 0
      vertex 203.797 29.8522 0
    endloop
  endfacet
  facet normal -0 0 1
    outer loop
      vertex 199.385 50.6115 0
      vertex 201.615 29.3885 0
      vertex 201.615 50.6115 0
    endloop
  endfacet
  facet normal 0 0 1
    outer loop
      vertex 199.385 50.6115 0
      vertex 199.385 29.3885 0
      vertex 201.615 29.3885 0
    endloop
  endfacet
  facet normal -0 0 1
    outer loop
      vertex 197.203 50.1478 0
      vertex 199.385 29.3885 0
      vertex 199.385 50.6115 0
    endloop
  endfacet
  facet normal 0 0 1
    outer loop
      vertex 197.203 50.1478 0
      vertex 197.203 29.8522 0
      vertex 199.385 29.3885 0
    endloop
  endfacet
  facet normal -0 0 1
    outer loop
      vertex 195.165 49.2405 0
      vertex 197.203 29.8522 0
      vertex 197.203 50.1478 0
    endloop
  endfacet
  facet normal 0 0 1
    outer loop
      vertex 195.165 49.2405 0
      vertex 195.165 30.7595 0
      vertex 197.203 29.8522 0
    endloop
  endfacet
  facet normal -0 0 1
    outer loop
      vertex 193.36 47.9294 0
      vertex 195.165 30.7595 0
      vertex 195.165 49.2405 0
    endloop
  endfacet
  facet normal 0 0 1
    outer loop
      vertex 193.36 47.9294 0
      vertex 193.36 32.0706 0
      vertex 195.165 30.7595 0
    endloop
  endfacet
  facet normal -0 0 1
    outer loop
      vertex 191.868 46.2717 0
      vertex 193.36 32.0706 0
      vertex 193.36 47.9294 0
    endloop
  endfacet
  facet normal 0 0 1
    outer loop
      vertex 191.868 46.2717 0
      vertex 191.868 33.7283 0
      vertex 193.36 32.0706 0
    endloop
  endfacet
  facet normal -0 0 1
    outer loop
      vertex 190.752 44.3399 0
      vertex 191.868 33.7283 0
      vertex 191.868 46.2717 0
    endloop
  endfacet
  facet normal 0 0 1
    outer loop
      vertex 190.752 44.3399 0
      vertex 190.752 35.6601 0
      vertex 191.868 33.7283 0
    endloop
  endfacet
  facet normal -0 0 1
    outer loop
      vertex 190.063 42.2184 0
      vertex 190.752 35.6601 0
      vertex 190.752 44.3399 0
    endloop
  endfacet
  facet normal 0 0 1
    outer loop
      vertex 190.063 42.2184 0
      vertex 190.063 37.7816 0
      vertex 190.752 35.6601 0
    endloop
  endfacet
  facet normal 0 -0 1
    outer loop
      vertex 190.063 37.7816 0
      vertex 190.063 42.2184 0
      vertex 189.83 40 0
    endloop
  endfacet
  facet normal -1 0 0
    outer loop
      vertex 137 0 0
      vertex 137 80 3
      vertex 137 80 0
    endloop
  endfacet
  facet normal -1 -0 0
    outer loop
      vertex 137 80 3
      vertex 137 0 0
      vertex 137 0 3
    endloop
  endfacet
  facet normal 0 1 -0
    outer loop
      vertex 264 80 0
      vertex 137 80 3
      vertex 264 80 3
    endloop
  endfacet
  facet normal 0 1 0
    outer loop
      vertex 137 80 3
      vertex 264 80 0
      vertex 137 80 0
    endloop
  endfacet
  facet normal 0 -1 0
    outer loop
      vertex 137 0 0
      vertex 264 0 3
      vertex 137 0 3
    endloop
  endfacet
  facet normal 0 -1 -0
    outer loop
      vertex 264 0 3
      vertex 137 0 0
      vertex 264 0 0
    endloop
  endfacet
  facet normal -0.951098 -0.308888 0
    outer loop
      vertex 210.937 42.2184 0
      vertex 210.248 44.3399 3
      vertex 210.248 44.3399 0
    endloop
  endfacet
  facet normal -0.951098 -0.308888 0
    outer loop
      vertex 210.248 44.3399 3
      vertex 210.937 42.2184 0
      vertex 210.937 42.2184 3
    endloop
  endfacet
  facet normal -0.99453 -0.104456 0
    outer loop
      vertex 211.17 40 0
      vertex 210.937 42.2184 3
      vertex 210.937 42.2184 0
    endloop
  endfacet
  facet normal -0.99453 -0.104456 0
    outer loop
      vertex 210.937 42.2184 3
      vertex 211.17 40 0
      vertex 211.17 40 3
    endloop
  endfacet
  facet normal -0.865894 -0.500227 0
    outer loop
      vertex 210.248 44.3399 0
      vertex 209.132 46.2717 3
      vertex 209.132 46.2717 0
    endloop
  endfacet
  facet normal -0.865894 -0.500227 0
    outer loop
      vertex 209.132 46.2717 3
      vertex 210.248 44.3399 0
      vertex 210.248 44.3399 3
    endloop
  endfacet
  facet normal -0.406708 0.913558 0
    outer loop
      vertex 205.835 30.7595 0
      vertex 203.797 29.8522 3
      vertex 205.835 30.7595 3
    endloop
  endfacet
  facet normal -0.406708 0.913558 0
    outer loop
      vertex 203.797 29.8522 3
      vertex 205.835 30.7595 0
      vertex 203.797 29.8522 0
    endloop
  endfacet
  facet normal -0.865894 0.500227 0
    outer loop
      vertex 209.132 33.7283 0
      vertex 210.248 35.6601 3
      vertex 210.248 35.6601 0
    endloop
  endfacet
  facet normal -0.865894 0.500227 0
    outer loop
      vertex 210.248 35.6601 3
      vertex 209.132 33.7283 0
      vertex 209.132 33.7283 3
    endloop
  endfacet
  facet normal -0.587695 -0.809083 0
    outer loop
      vertex 205.835 49.2405 0
      vertex 207.64 47.9294 3
      vertex 205.835 49.2405 3
    endloop
  endfacet
  facet normal -0.587695 -0.809083 -0
    outer loop
      vertex 207.64 47.9294 3
      vertex 205.835 49.2405 0
      vertex 207.64 47.9294 0
    endloop
  endfacet
  facet normal -0.99453 0.104456 0
    outer loop
      vertex 210.937 37.7816 0
      vertex 211.17 40 3
      vertex 211.17 40 0
    endloop
  endfacet
  facet normal -0.99453 0.104456 0
    outer loop
      vertex 211.17 40 3
      vertex 210.937 37.7816 0
      vertex 210.937 37.7816 3
    endloop
  endfacet
  facet normal 0 -1 0
    outer loop
      vertex 199.385 50.6115 0
      vertex 201.615 50.6115 3
      vertex 199.385 50.6115 3
    endloop
  endfacet
  facet normal 0 -1 -0
    outer loop
      vertex 201.615 50.6115 3
      vertex 199.385 50.6115 0
      vertex 201.615 50.6115 0
    endloop
  endfacet
  facet normal -0.406708 -0.913558 0
    outer loop
      vertex 203.797 50.1478 0
      vertex 205.835 49.2405 3
      vertex 203.797 50.1478 3
    endloop
  endfacet
  facet normal -0.406708 -0.913558 -0
    outer loop
      vertex 205.835 49.2405 3
      vertex 203.797 50.1478 0
      vertex 205.835 49.2405 0
    endloop
  endfacet
  facet normal 0.743279 -0.668982 0
    outer loop
      vertex 191.868 46.2717 3
      vertex 193.36 47.9294 0
      vertex 193.36 47.9294 3
    endloop
  endfacet
  facet normal 0.743279 -0.668982 0
    outer loop
      vertex 193.36 47.9294 0
      vertex 191.868 46.2717 3
      vertex 191.868 46.2717 0
    endloop
  endfacet
  facet normal 0 1 -0
    outer loop
      vertex 201.615 29.3885 0
      vertex 199.385 29.3885 3
      vertex 201.615 29.3885 3
    endloop
  endfacet
  facet normal 0 1 0
    outer loop
      vertex 199.385 29.3885 3
      vertex 201.615 29.3885 0
      vertex 199.385 29.3885 0
    endloop
  endfacet
  facet normal 0.743279 0.668982 0
    outer loop
      vertex 193.36 32.0706 3
      vertex 191.868 33.7283 0
      vertex 191.868 33.7283 3
    endloop
  endfacet
  facet normal 0.743279 0.668982 0
    outer loop
      vertex 191.868 33.7283 0
      vertex 193.36 32.0706 3
      vertex 193.36 32.0706 0
    endloop
  endfacet
  facet normal 0.865894 -0.500227 0
    outer loop
      vertex 190.752 44.3399 3
      vertex 191.868 46.2717 0
      vertex 191.868 46.2717 3
    endloop
  endfacet
  facet normal 0.865894 -0.500227 0
    outer loop
      vertex 191.868 46.2717 0
      vertex 190.752 44.3399 3
      vertex 190.752 44.3399 0
    endloop
  endfacet
  facet normal 0.406708 0.913558 -0
    outer loop
      vertex 197.203 29.8522 0
      vertex 195.165 30.7595 3
      vertex 197.203 29.8522 3
    endloop
  endfacet
  facet normal 0.406708 0.913558 0
    outer loop
      vertex 195.165 30.7595 3
      vertex 197.203 29.8522 0
      vertex 195.165 30.7595 0
    endloop
  endfacet
  facet normal 0.406708 -0.913558 0
    outer loop
      vertex 195.165 49.2405 0
      vertex 197.203 50.1478 3
      vertex 195.165 49.2405 3
    endloop
  endfacet
  facet normal 0.406708 -0.913558 0
    outer loop
      vertex 197.203 50.1478 3
      vertex 195.165 49.2405 0
      vertex 197.203 50.1478 0
    endloop
  endfacet
  facet normal -0.207869 0.978157 0
    outer loop
      vertex 203.797 29.8522 0
      vertex 201.615 29.3885 3
      vertex 203.797 29.8522 3
    endloop
  endfacet
  facet normal -0.207869 0.978157 0
    outer loop
      vertex 201.615 29.3885 3
      vertex 203.797 29.8522 0
      vertex 201.615 29.3885 0
    endloop
  endfacet
  facet normal -0.743279 -0.668982 0
    outer loop
      vertex 209.132 46.2717 0
      vertex 207.64 47.9294 3
      vertex 207.64 47.9294 0
    endloop
  endfacet
  facet normal -0.743279 -0.668982 0
    outer loop
      vertex 207.64 47.9294 3
      vertex 209.132 46.2717 0
      vertex 209.132 46.2717 3
    endloop
  endfacet
  facet normal 0.587695 0.809083 -0
    outer loop
      vertex 195.165 30.7595 0
      vertex 193.36 32.0706 3
      vertex 195.165 30.7595 3
    endloop
  endfacet
  facet normal 0.587695 0.809083 0
    outer loop
      vertex 193.36 32.0706 3
      vertex 195.165 30.7595 0
      vertex 193.36 32.0706 0
    endloop
  endfacet
  facet normal -0.743279 0.668982 0
    outer loop
      vertex 207.64 32.0706 0
      vertex 209.132 33.7283 3
      vertex 209.132 33.7283 0
    endloop
  endfacet
  facet normal -0.743279 0.668982 0
    outer loop
      vertex 209.132 33.7283 3
      vertex 207.64 32.0706 0
      vertex 207.64 32.0706 3
    endloop
  endfacet
  facet normal -0.207869 -0.978157 0
    outer loop
      vertex 201.615 50.6115 0
      vertex 203.797 50.1478 3
      vertex 201.615 50.6115 3
    endloop
  endfacet
  facet normal -0.207869 -0.978157 -0
    outer loop
      vertex 203.797 50.1478 3
      vertex 201.615 50.6115 0
      vertex 203.797 50.1478 0
    endloop
  endfacet
  facet normal 0.587695 -0.809083 0
    outer loop
      vertex 193.36 47.9294 0
      vertex 195.165 49.2405 3
      vertex 193.36 47.9294 3
    endloop
  endfacet
  facet normal 0.587695 -0.809083 0
    outer loop
      vertex 195.165 49.2405 3
      vertex 193.36 47.9294 0
      vertex 195.165 49.2405 0
    endloop
  endfacet
  facet normal -0.587695 0.809083 0
    outer loop
      vertex 207.64 32.0706 0
      vertex 205.835 30.7595 3
      vertex 207.64 32.0706 3
    endloop
  endfacet
  facet normal -0.587695 0.809083 0
    outer loop
      vertex 205.835 30.7595 3
      vertex 207.64 32.0706 0
      vertex 205.835 30.7595 0
    endloop
  endfacet
  facet normal 0.951098 0.308888 0
    outer loop
      vertex 190.752 35.6601 3
      vertex 190.063 37.7816 0
      vertex 190.063 37.7816 3
    endloop
  endfacet
  facet normal 0.951098 0.308888 0
    outer loop
      vertex 190.063 37.7816 0
      vertex 190.752 35.6601 3
      vertex 190.752 35.6601 0
    endloop
  endfacet
  facet normal 0.207869 -0.978157 0
    outer loop
      vertex 197.203 50.1478 0
      vertex 199.385 50.6115 3
      vertex 197.203 50.1478 3
    endloop
  endfacet
  facet normal 0.207869 -0.978157 0
    outer loop
      vertex 199.385 50.6115 3
      vertex 197.203 50.1478 0
      vertex 199.385 50.6115 0
    endloop
  endfacet
  facet normal 0.865894 0.500227 0
    outer loop
      vertex 191.868 33.7283 3
      vertex 190.752 35.6601 0
      vertex 190.752 35.6601 3
    endloop
  endfacet
  facet normal 0.865894 0.500227 0
    outer loop
      vertex 190.752 35.6601 0
      vertex 191.868 33.7283 3
      vertex 191.868 33.7283 0
    endloop
  endfacet
  facet normal 0.99453 -0.104456 0
    outer loop
      vertex 189.83 40 3
      vertex 190.063 42.2184 0
      vertex 190.063 42.2184 3
    endloop
  endfacet
  facet normal 0.99453 -0.104456 0
    outer loop
      vertex 190.063 42.2184 0
      vertex 189.83 40 3
      vertex 189.83 40 0
    endloop
  endfacet
  facet normal -0.951098 0.308888 0
    outer loop
      vertex 210.248 35.6601 0
      vertex 210.937 37.7816 3
      vertex 210.937 37.7816 0
    endloop
  endfacet
  facet normal -0.951098 0.308888 0
    outer loop
      vertex 210.937 37.7816 3
      vertex 210.248 35.6601 0
      vertex 210.248 35.6601 3
    endloop
  endfacet
  facet normal 0.951098 -0.308888 0
    outer loop
      vertex 190.063 42.2184 3
      vertex 190.752 44.3399 0
      vertex 190.752 44.3399 3
    endloop
  endfacet
  facet normal 0.951098 -0.308888 0
    outer loop
      vertex 190.752 44.3399 0
      vertex 190.063 42.2184 3
      vertex 190.063 42.2184 0
    endloop
  endfacet
  facet normal 0.207869 0.978157 -0
    outer loop
      vertex 199.385 29.3885 0
      vertex 197.203 29.8522 3
      vertex 199.385 29.3885 3
    endloop
  endfacet
  facet normal 0.207869 0.978157 0
    outer loop
      vertex 197.203 29.8522 3
      vertex 199.385 29.3885 0
      vertex 197.203 29.8522 0
    endloop
  endfacet
  facet normal 0.99453 0.104456 0
    outer loop
      vertex 190.063 37.7816 3
      vertex 189.83 40 0
      vertex 189.83 40 3
    endloop
  endfacet
  facet normal 0.99453 0.104456 0
    outer loop
      vertex 189.83 40 0
      vertex 190.063 37.7816 3
      vertex 190.063 37.7816 0
    endloop
  endfacet
  facet normal 1 -0 0
    outer loop
      vertex 260 4 0
      vertex 260 76 -2
      vertex 260 76 0
    endloop
  endfacet
  facet normal 1 0 0
    outer loop
      vertex 260 76 -2
      vertex 260 4 0
      vertex 260 4 -2
    endloop
  endfacet
  facet normal 0 0 -1
    outer loop
      vertex 141 4 -2
      vertex 260 76 -2
      vertex 260 4 -2
    endloop
  endfacet
  facet normal -0 0 -1
    outer loop
      vertex 260 76 -2
      vertex 141 4 -2
      vertex 141 76 -2
    endloop
  endfacet
  facet normal -1 0 0
    outer loop
      vertex 141 4 -2
      vertex 141 76 0
      vertex 141 76 -2
    endloop
  endfacet
  facet normal -1 -0 0
    outer loop
      vertex 141 76 0
      vertex 141 4 -2
      vertex 141 4 0
    endloop
  endfacet
  facet normal 0 1 -0
    outer loop
      vertex 260 76 -2
      vertex 141 76 0
      vertex 260 76 0
    endloop
  endfacet
  facet normal 0 1 0
    outer loop
      vertex 141 76 0
      vertex 260 76 -2
      vertex 141 76 -2
    endloop
  endfacet
  facet normal 0 -1 0
    outer loop
      vertex 141 4 -2
      vertex 260 4 0
      vertex 141 4 0
    endloop
  endfacet
  facet normal 0 -1 -0
    outer loop
      vertex 260 4 0
      vertex 141 4 -2
      vertex 260 4 -2
    endloop
  endfacet
endsolid OpenSCAD_Model
